<svg width="136" height="44" viewBox="0 0 136 44" fill="none" xmlns="http://www.w3.org/2000/svg">
<path fill-rule="evenodd" clip-rule="evenodd" d="M39.168 30.2548C39.2383 30.4318 39.3087 30.6087 39.379 30.7808C39.927 32.3734 40.096 33.8799 39.759 35.3865C39.295 38.5716 37.228 41.3264 34.276 42.5316C33.222 43.0051 32.041 43.2203 30.86 43.2203C30.523 43.2203 30.101 43.1772 29.764 43.1342C28.372 42.962 26.938 42.4886 25.546 41.6707C23.859 40.6807 22.172 39.2603 20.317 37.1943C18.461 39.2603 16.816 40.6807 15.087 41.6707C13.696 42.4886 12.262 42.962 10.87 43.1342C10.533 43.1772 10.111 43.2203 9.773 43.2203C8.593 43.2203 7.454 43.0051 6.357 42.5316C3.447 41.3264 1.339 38.6147 0.875001 35.3865C0.664001 33.8369 0.833001 32.3304 1.381 30.7378C1.592 30.1782 1.803 29.6617 2.014 29.1883C2.17218 28.8247 2.33037 28.4705 2.48431 28.1257C2.65833 27.7361 2.82694 27.3585 2.984 26.9931L3.026 26.907C5.936 20.4505 9.099 13.908 12.346 7.45155L12.472 7.19335C12.7954 6.5756 13.1178 5.9185 13.4411 5.2597L13.485 5.17025C13.906 4.39555 14.37 3.5777 15.003 2.80292C16.395 1.16729 18.292 0.220337 20.401 0.220337C22.468 0.220337 24.408 1.16729 25.757 2.88901C26.3817 3.60602 26.7897 4.35986 27.1807 5.08238L27.275 5.25635L27.3207 5.34957L27.3209 5.34991C27.6435 6.00734 27.9653 6.66299 28.287 7.27935L28.414 7.53765C31.703 13.9941 34.824 20.5366 37.734 26.9931L37.776 27.0361C37.9332 27.4019 38.1019 27.7797 38.2761 28.1697C38.4299 28.5141 38.588 28.868 38.746 29.2313C38.8867 29.547 39.0273 29.9009 39.168 30.2548ZM71.9361 11.0241C71.9361 12.5736 70.7131 13.8219 69.1941 13.8219C67.6761 13.8219 66.4531 12.5736 66.4531 11.0241C66.4531 9.47452 67.6341 8.22632 69.1941 8.22632C70.7551 8.26932 71.9361 9.51762 71.9361 11.0241ZM60.6333 16.6628V17.3515C60.6333 17.3515 59.3263 15.6298 56.5433 15.6298C51.9463 15.6298 48.3613 19.2024 48.3613 24.1523C48.3613 29.0592 51.9033 32.6748 56.5433 32.6748C59.3683 32.6748 60.6333 30.9101 60.6333 30.9101V31.6418C60.6333 31.9862 60.8863 32.2444 61.2243 32.2444H64.6403V16.0602H61.2243C60.8863 16.0602 60.6333 16.3615 60.6333 16.6628ZM57.218 28.8009C58.737 28.8009 60.002 27.9831 60.634 27.0361V21.2683C60.044 20.3644 58.694 19.5036 57.218 19.5036C54.519 19.5036 52.453 21.2253 52.453 24.1522C52.453 27.0791 54.519 28.8009 57.218 28.8009ZM67.1719 16.0602H71.2209V32.2444H67.1719V16.0602ZM123.557 17.3514C123.557 17.3514 124.864 15.6297 127.648 15.6297C132.202 15.6297 135.787 19.2453 135.787 24.1522C135.787 29.0591 132.202 32.6747 127.605 32.6747C124.822 32.6747 123.515 30.91 123.515 30.91V31.6417C123.515 31.943 123.262 32.2443 122.924 32.2443H119.508V8.26935H123.557V17.3514ZM126.973 28.7579C125.412 28.7579 124.189 27.9401 123.557 26.9932V21.2254C124.189 20.3645 125.539 19.4606 126.973 19.4606C129.672 19.4606 131.738 21.1824 131.738 24.1093C131.738 27.0362 129.672 28.7579 126.973 28.7579ZM117.4 32.2875V22.6458C117.4 19.9341 116.852 18.3846 115.418 17.1793C114.237 16.1463 112.761 15.6298 110.99 15.6298C109.43 15.6298 107.869 16.1033 106.688 17.3515V16.6628C106.688 16.3615 106.435 16.0602 106.098 16.0602H102.893V32.2444H106.942V20.9671C107.743 20.0202 109.008 19.3745 110.231 19.3745C112.508 19.3745 113.352 20.4506 113.352 23.1193V32.2875H117.4ZM93.066 15.6297C90.282 15.6297 88.975 17.3514 88.975 17.3514V8.26935H84.926V32.2443H88.342C88.68 32.2443 88.933 31.943 88.933 31.6417V30.91C88.933 30.91 90.24 32.6747 93.023 32.6747C97.62 32.6747 101.205 29.0591 101.205 24.1522C101.247 19.2453 97.662 15.6297 93.066 15.6297ZM88.9746 26.9932C89.6066 27.9401 90.8296 28.7579 92.3906 28.7579C95.0896 28.7579 97.1556 27.0362 97.1556 24.1093C97.1556 21.1824 95.0896 19.4606 92.3906 19.4606C90.9566 19.4606 89.6066 20.3645 88.9746 21.2254V26.9932ZM81.426 15.6297C82.649 15.6297 83.281 15.8449 83.281 15.8449V19.6757C83.281 19.6757 79.907 18.5136 77.799 20.967V32.2874H73.75V16.0601H77.166C77.504 16.0601 77.757 16.3614 77.757 16.6627V17.3514C78.516 16.4475 80.161 15.6297 81.426 15.6297ZM20.3597 33.0191C18.0827 30.0922 16.6057 27.3374 16.0997 25.0131C15.8897 24.0231 15.8467 23.1622 15.9737 22.3875C16.0577 21.6988 16.3107 21.0962 16.6487 20.5796C17.4497 19.4175 18.7987 18.6858 20.3597 18.6858C21.9197 18.6858 23.3117 19.3744 24.0707 20.5796C24.4087 21.0962 24.6617 21.6988 24.7457 22.3875C24.8717 23.1622 24.8297 24.0661 24.6187 25.0131C24.1127 27.2944 22.6367 30.0491 20.3597 33.0191ZM33.3486 40.0781C35.4156 39.2173 36.8916 37.2803 37.1866 35.0421C37.3556 33.923 37.2286 32.8469 36.8916 31.7278C36.8041 31.4314 36.6768 31.1349 36.5374 30.8103C36.4744 30.6636 36.409 30.5112 36.3436 30.3504C36.1736 30.0039 36.0144 29.6356 35.8553 29.2675C35.6981 28.9039 35.5411 28.5405 35.3736 28.1983V28.1552C32.4636 21.7418 29.3426 15.1993 26.1376 8.78593L26.0106 8.52763C25.8421 8.20478 25.6734 7.87121 25.5046 7.53763C25.3359 7.20406 25.1671 6.87048 24.9986 6.54763C24.6616 5.85893 24.2816 5.21333 23.8176 4.65373C22.9316 3.62072 21.7516 3.06116 20.4436 3.06116C19.1366 3.06116 17.9556 3.62072 17.0696 4.65373C16.6056 5.21333 16.2266 5.85893 15.8896 6.54763C15.7206 6.87048 15.5519 7.20406 15.3831 7.53763C15.2144 7.87121 15.0456 8.20478 14.8766 8.52763L14.7506 8.78593C11.5036 15.1562 8.38262 21.6988 5.47262 28.1122L5.43062 28.1983C5.09262 28.93 4.75562 29.6617 4.46062 30.3504C4.39605 30.5085 4.33148 30.6585 4.26932 30.8029C4.12835 31.1304 3.99975 31.4291 3.91162 31.7278C3.49062 32.933 3.40562 34.0091 3.53262 35.0852C3.82762 37.3234 5.30362 39.2603 7.37062 40.1212C8.34062 40.5086 9.43662 40.6807 10.5756 40.5516C11.6296 40.4225 12.6836 40.0781 13.7806 39.4325C15.2986 38.5716 16.8596 37.2373 18.5886 35.2573C15.8466 31.7708 14.1176 28.5426 13.4856 25.7018C13.1476 24.4105 13.1056 23.1622 13.2746 22.0431C13.4426 20.967 13.8226 19.977 14.4126 19.1162C15.7206 17.2223 17.9136 16.0601 20.3596 16.0601C22.8056 16.0601 24.9986 17.1792 26.3056 19.1162C26.8966 19.977 27.2756 20.967 27.4446 22.0431C27.5716 23.1622 27.5286 24.3674 27.2336 25.7018C26.6016 28.5426 24.9146 31.7278 22.1306 35.2143C23.9016 37.1943 25.4206 38.5286 26.9386 39.3895C28.0346 40.0351 29.0896 40.3794 30.1436 40.5086C31.2406 40.6377 32.3366 40.5086 33.3486 40.0781Z" fill="black"/>
</svg>
