<svg width="107" height="33" viewBox="0 0 107 33" fill="none" xmlns="http://www.w3.org/2000/svg">
<path fill-rule="evenodd" clip-rule="evenodd" d="M66.4699 25.4848C60.3169 30.0206 51.3999 32.4406 43.7219 32.4406C32.9559 32.4406 23.2639 28.4579 15.9319 21.834C15.3559 21.3131 15.8719 20.6032 16.5629 21.0089C24.4759 25.6138 34.2599 28.3842 44.3669 28.3842C51.1829 28.3842 58.6809 26.9736 65.5759 24.0466C66.6169 23.6041 67.4879 24.7288 66.4699 25.4848Z" fill="black"/>
<path fill-rule="evenodd" clip-rule="evenodd" d="M69.0279 22.558C68.2439 21.5531 63.8289 22.0832 61.8469 22.3183C61.2439 22.3921 61.1509 21.8666 61.6949 21.4886C65.2119 19.0133 70.9819 19.7278 71.6539 20.5575C72.327 21.3918 71.4789 27.1768 68.1749 29.9379C67.6679 30.362 67.1839 30.1361 67.4099 29.5738C68.1519 27.7207 69.8159 23.5675 69.0279 22.558Z" fill="black"/>
<path fill-rule="evenodd" clip-rule="evenodd" d="M61.986 4.01385V1.60765C61.986 1.24345 62.262 0.999146 62.594 0.999146H73.364C73.71 0.999146 73.986 1.24805 73.986 1.60765V3.66805C73.982 4.01385 73.691 4.46555 73.175 5.18005L67.594 13.1499C69.668 13.0992 71.857 13.408 73.738 14.4682C74.162 14.7079 74.277 15.0582 74.309 15.404V17.9715C74.309 18.3218 73.922 18.7321 73.516 18.52C70.203 16.7822 65.802 16.5932 62.138 18.5385C61.764 18.7413 61.373 18.3356 61.373 17.9853V15.5469C61.373 15.155 61.377 14.4867 61.769 13.892L68.235 4.61765H62.608C62.262 4.61765 61.986 4.37335 61.986 4.01385Z" fill="black"/>
<path fill-rule="evenodd" clip-rule="evenodd" d="M22.696 19.0274H19.42C19.106 19.0043 18.857 18.7692 18.834 18.4696V1.64935C18.834 1.31285 19.115 1.04545 19.466 1.04545H22.521C22.839 1.05925 23.093 1.30355 23.116 1.60785V3.80655H23.176C23.973 1.68155 25.471 0.690552 27.489 0.690552C29.54 0.690552 30.821 1.68155 31.743 3.80655C32.536 1.68155 34.338 0.690552 36.269 0.690552C37.642 0.690552 39.144 1.25745 40.062 2.52975C41.098 3.94485 40.886 6.00075 40.886 7.80305L40.882 18.4189C40.882 18.7554 40.601 19.0274 40.25 19.0274H36.978C36.651 19.0043 36.388 18.7416 36.388 18.4189V9.50395C36.388 8.79415 36.453 7.02405 36.296 6.35105C36.052 5.22175 35.319 4.90365 34.37 4.90365C33.577 4.90365 32.748 5.43375 32.411 6.28195C32.075 7.13005 32.107 8.54985 32.107 9.50395V18.4189C32.107 18.7554 31.826 19.0274 31.476 19.0274H28.204C27.872 19.0043 27.614 18.7416 27.614 18.4189L27.609 9.50395C27.609 7.62785 27.918 4.86675 25.591 4.86675C23.236 4.86675 23.328 7.55875 23.328 9.50395V18.4189C23.328 18.7554 23.047 19.0274 22.696 19.0274Z" fill="black"/>
<path fill-rule="evenodd" clip-rule="evenodd" d="M83.2588 0.690552C88.1208 0.690552 90.7518 4.86675 90.7518 10.177C90.7518 15.3075 87.8438 19.3777 83.2588 19.3777C78.4838 19.3777 75.8848 15.2014 75.8848 9.99725C75.8848 4.76075 78.5168 0.690552 83.2588 0.690552ZM83.2877 4.12451C80.8727 4.12451 80.7207 7.41581 80.7207 9.46701C80.7207 11.5229 80.6877 15.9112 83.2597 15.9112C85.7987 15.9112 85.9187 12.371 85.9187 10.2138C85.9187 8.79401 85.8587 7.09771 85.4307 5.75171C85.0617 4.58091 84.3287 4.12451 83.2877 4.12451Z" fill="black"/>
<path fill-rule="evenodd" clip-rule="evenodd" d="M97.0562 19.0274H93.7932C93.4662 19.0043 93.2032 18.7416 93.2032 18.4189L93.1992 1.59395C93.2262 1.28515 93.4982 1.04545 93.8302 1.04545H96.8672C97.1532 1.05925 97.3882 1.25285 97.4522 1.51565V4.08775H97.5122C98.4292 1.78755 99.7152 0.690552 101.978 0.690552C103.448 0.690552 104.881 1.22065 105.803 2.67265C106.66 4.01865 106.66 6.28195 106.66 7.90905V18.4973C106.623 18.7923 106.352 19.0274 106.029 19.0274H102.743C102.443 19.0043 102.195 18.7831 102.162 18.4973V9.36105C102.162 7.52185 102.374 4.82985 100.112 4.82985C99.3142 4.82985 98.5812 5.36465 98.2172 6.17585C97.7572 7.20385 97.6972 8.22715 97.6972 9.36105V18.4189C97.6922 18.7554 97.4062 19.0274 97.0562 19.0274Z" fill="black"/>
<path fill-rule="evenodd" clip-rule="evenodd" d="M53.3994 10.9927C53.3994 12.2695 53.4314 13.3343 52.7864 14.4683C52.2654 15.3902 51.4364 15.9572 50.5184 15.9572C49.2604 15.9572 48.5234 14.9984 48.5234 13.5832C48.5234 10.7898 51.0254 10.2828 53.3994 10.2828V10.9927ZM56.7031 18.9809C56.4871 19.1745 56.1731 19.1884 55.9291 19.0593C54.8411 18.1558 54.6431 17.7364 54.0491 16.8744C52.2511 18.709 50.9751 19.2575 48.6471 19.2575C45.8871 19.2575 43.7441 17.5566 43.7441 14.1501C43.7441 11.4904 45.1821 9.67893 47.2371 8.79383C49.0161 8.01023 51.5001 7.87193 53.3991 7.65533V7.23123C53.3991 6.45223 53.4591 5.53033 52.9981 4.85733C52.6011 4.25343 51.8361 4.00453 51.1591 4.00453C49.9101 4.00453 48.7991 4.64523 48.5271 5.97283C48.4721 6.26783 48.2561 6.55823 47.9561 6.57203L44.7811 6.23093C44.5131 6.17103 44.2141 5.95433 44.2921 5.54413C45.0201 1.69053 48.5041 0.528931 51.6201 0.528931C53.2141 0.528931 55.2971 0.953031 56.5561 2.16073C58.1501 3.64963 57.9981 5.63633 57.9981 7.79823V12.9055C57.9981 14.4405 58.6341 15.1135 59.2331 15.9432C59.4411 16.2383 59.4871 16.5932 59.2191 16.8144C58.5511 17.3722 57.3621 18.4094 56.7081 18.9902L56.7031 18.9809Z" fill="black"/>
<path fill-rule="evenodd" clip-rule="evenodd" d="M10.4413 10.9927C10.4413 12.2695 10.4733 13.3343 9.82831 14.4683C9.30731 15.3902 8.48231 15.9572 7.56131 15.9572C6.30331 15.9572 5.57031 14.9984 5.57031 13.5832C5.57031 10.7898 8.07231 10.2828 10.4413 10.2828V10.9927ZM13.7461 18.9809C13.5301 19.1745 13.2161 19.1884 12.9721 19.0593C11.8851 18.1558 11.6911 17.7364 11.0921 16.8744C9.29411 18.709 8.02311 19.2575 5.69111 19.2575C2.93511 19.2575 0.787109 17.5566 0.787109 14.1501C0.787109 11.4904 2.22911 9.67893 4.28011 8.79383C6.05911 8.01023 8.54311 7.87193 10.4421 7.65533V7.23123C10.4421 6.45223 10.5021 5.53033 10.0461 4.85733C9.64511 4.25343 8.88011 4.00453 8.20711 4.00453C6.95811 4.00453 5.84311 4.64523 5.57111 5.97283C5.51511 6.26783 5.29911 6.55823 5.00411 6.57203L1.82411 6.23093C1.55711 6.17103 1.26211 5.95433 1.33511 5.54413C2.06811 1.69053 5.54811 0.528931 8.66311 0.528931C10.2581 0.528931 12.3411 0.953031 13.5991 2.16073C15.1931 3.64963 15.0411 5.63633 15.0411 7.79823V12.9055C15.0411 14.4405 15.6771 15.1135 16.2771 15.9432C16.4881 16.2383 16.5351 16.5932 16.2671 16.8144C15.5991 17.3722 14.4101 18.4094 13.7561 18.9902L13.7461 18.9809Z" fill="black"/>
</svg>
