<svg width="38" height="46" viewBox="0 0 38 46" fill="none" xmlns="http://www.w3.org/2000/svg">
<path fill-rule="evenodd" clip-rule="evenodd" d="M28.5422 0C28.8342 2.66054 27.7662 5.33448 26.1792 7.25528C24.5922 9.1773 21.9882 10.6701 19.4382 10.4728C19.0912 7.86496 20.3782 5.14396 21.8492 3.44394C23.4892 1.52419 26.2552 0.0919304 28.5422 0ZM37.9862 33.3314C37.7112 33.22 31.9602 30.8907 31.8972 24.1411C31.8472 18.5111 36.3982 15.7442 36.7892 15.5067C36.7972 15.5017 36.8042 15.4978 36.8082 15.495C34.1382 11.5861 29.9792 11.0493 28.4972 10.9876C26.3322 10.7682 24.2322 11.5967 22.5172 12.2732C21.4282 12.7027 20.4952 13.0709 19.7982 13.0709C19.0212 13.0709 18.0612 12.6902 16.9842 12.263C15.5742 11.7036 13.9632 11.0646 12.2992 11.0963C8.44016 11.1524 4.88516 13.3389 2.89616 16.7916C-1.10784 23.7444 1.87416 34.0446 5.77616 39.6862C7.68616 42.4442 9.96216 45.5507 12.9512 45.4376C14.2882 45.385 15.2392 44.9801 16.2222 44.5613C17.3562 44.0784 18.5332 43.5772 20.3962 43.5772C22.1752 43.5772 23.3002 44.064 24.3822 44.5321C25.4152 44.979 26.4092 45.4089 27.8952 45.3815C30.9922 45.3244 32.9572 42.5664 34.8512 39.7983C36.9722 36.6993 37.8862 33.6959 37.9882 33.3599C37.9922 33.3487 37.9942 33.3405 37.9962 33.3353C37.9952 33.3348 37.9922 33.3335 37.9862 33.3314Z" fill="black"/>
</svg>
