<svg width="61" height="60" viewBox="0 0 61 60" fill="none" xmlns="http://www.w3.org/2000/svg">
<path d="M30.4814 59.3661C23.4464 59.3601 16.6296 56.9931 11.1854 52.6658C5.7413 48.3385 2.00438 42.317 0.607498 35.6208C-0.789388 28.9246 0.239603 21.9654 3.52022 15.9215C6.80084 9.8776 12.1315 5.12055 18.6094 2.45587C26.0375 -0.473174 34.3542 -0.444971 41.761 2.53438C49.1678 5.51374 55.0693 11.2048 58.1894 18.3768C61.3095 25.5487 61.3973 33.6252 58.4338 40.8596C55.4704 48.094 49.6938 53.9047 42.3534 57.0353C38.5979 58.5801 34.5599 59.3728 30.4814 59.3661V59.3661ZM18.2584 20.2816L13.2414 25.0403L30.0814 41.0111L46.9224 25.0354L41.9054 20.2767L30.0814 31.4937L18.2584 20.2816Z" fill="#E0B973"/>
</svg>
