<svg width="126" height="25" viewBox="0 0 126 25" fill="none" xmlns="http://www.w3.org/2000/svg">
<path fill-rule="evenodd" clip-rule="evenodd" d="M10.7591 4.42675C9.29109 4.42675 8.86509 5.08005 8.86509 6.51635V8.89975H12.7841L12.3921 12.7536H8.86509V24.4437H4.16309V12.7536H0.996094V8.89975H4.16309V6.58115C4.16309 2.69665 5.73009 0.639648 10.1061 0.639648C11.0531 0.639648 12.1631 0.704448 12.8491 0.802048V4.42675" fill="black"/>
<path fill-rule="evenodd" clip-rule="evenodd" d="M17.8105 17.2262C17.8105 19.5448 18.6605 21.0785 20.8475 21.0785C22.7745 21.0785 23.7545 19.6747 23.7545 17.4555V15.8875C23.7545 13.6663 22.7745 12.2625 20.8475 12.2625C18.6605 12.2625 17.8105 13.7982 17.8105 16.1165V17.2262ZM13.1094 16.1817C13.1094 11.8387 15.1664 8.57275 19.4774 8.57275C21.8284 8.57275 23.2644 9.78185 23.9504 11.2828V8.89945H28.4574V24.4418H23.9504V22.0927C23.2964 23.5939 21.8284 24.7684 19.4774 24.7684C15.1664 24.7684 13.1094 21.5046 13.1094 17.1615V16.1817Z" fill="black"/>
<path fill-rule="evenodd" clip-rule="evenodd" d="M38.2507 8.57275C40.0787 8.57275 41.8108 8.96425 42.7568 9.61775L41.7118 12.9484C40.9937 12.5893 39.8188 12.2304 38.5778 12.2304C36.0297 12.2304 34.9198 13.699 34.9198 16.2143V17.127C34.9198 19.6423 36.0297 21.1109 38.5778 21.1109C39.8188 21.1109 40.9937 20.752 41.7118 20.3928L42.7568 23.7238C41.8108 24.3767 40.0787 24.7684 38.2507 24.7684C32.7337 24.7684 30.2188 21.7966 30.2188 17.0296V16.3116C30.2188 11.5446 32.7337 8.57275 38.2507 8.57275Z" fill="black"/>
<path fill-rule="evenodd" clip-rule="evenodd" d="M48.0781 15.2344H53.7601V14.843C53.7601 13.1451 53.0751 11.8064 51.0181 11.8064C48.8941 11.8064 48.0781 13.1451 48.0781 15.2344ZM43.377 17.2589V15.8876C43.377 11.4798 45.891 8.57275 51.019 8.57275C55.851 8.57275 57.972 11.5121 57.972 15.8228V18.3035H48.079C48.177 20.4274 49.124 21.3727 51.737 21.3727C53.5 21.3727 55.362 21.0135 56.733 20.4274L57.581 23.6587C56.342 24.3119 53.794 24.8009 51.54 24.8009C45.598 24.8009 43.377 21.8312 43.377 17.2589Z" fill="black"/>
<path fill-rule="evenodd" clip-rule="evenodd" d="M70.7058 16.0822C70.7058 13.8936 69.8558 12.2625 67.6048 12.2625C65.6778 12.2625 64.6328 13.6338 64.6328 15.853V17.486C64.6328 19.7072 65.6778 21.0785 67.6048 21.0785C69.8558 21.0785 70.7058 19.4454 70.7058 17.2568V16.0822ZM75.4086 17.1595C75.4086 21.5026 73.3196 24.7684 69.0086 24.7684C66.6576 24.7684 65.0256 23.5919 64.3716 22.0907V24.4418H59.9316V1.09392L64.6336 0.669922V11.0538C65.3196 9.68262 66.8206 8.57282 69.0086 8.57282C73.3196 8.57282 75.4086 11.837 75.4086 16.1797V17.1595Z" fill="black"/>
<path fill-rule="evenodd" clip-rule="evenodd" d="M87.7498 15.9523C87.7498 13.8956 86.8998 12.2625 84.7128 12.2625C82.5238 12.2625 81.6758 13.8956 81.6758 15.9523V17.3887C81.6758 19.4454 82.5238 21.0785 84.7128 21.0785C86.8998 21.0785 87.7498 19.4454 87.7498 17.3887V15.9523ZM76.9746 17.0622V16.2791C76.9746 11.8061 79.5206 8.57275 84.7136 8.57275C89.9046 8.57275 92.4526 11.8061 92.4526 16.2791V17.0622C92.4526 21.5368 89.9046 24.7684 84.7136 24.7684C79.5206 24.7684 76.9746 21.5368 76.9746 17.0622Z" fill="black"/>
<path fill-rule="evenodd" clip-rule="evenodd" d="M104.794 15.9523C104.794 13.8956 103.944 12.2625 101.758 12.2625C99.5687 12.2625 98.7207 13.8956 98.7207 15.9523V17.3887C98.7207 19.4454 99.5687 21.0785 101.758 21.0785C103.944 21.0785 104.794 19.4454 104.794 17.3887V15.9523ZM94.0195 17.0622V16.2791C94.0195 11.8061 96.5655 8.57275 101.759 8.57275C106.95 8.57275 109.497 11.8061 109.497 16.2791V17.0622C109.497 21.5368 106.95 24.7684 101.759 24.7684C96.5655 24.7684 94.0195 21.5368 94.0195 17.0622Z" fill="black"/>
<path fill-rule="evenodd" clip-rule="evenodd" d="M115.96 16.3113L120.597 8.89922H125.593L120.727 16.5731L125.788 24.4415H120.794L115.96 16.8347V24.4415H111.258V1.09562L115.96 0.669922" fill="black"/>
</svg>
