<svg width="112" height="38" viewBox="0 0 112 38" fill="none" xmlns="http://www.w3.org/2000/svg">
<path fill-rule="evenodd" clip-rule="evenodd" d="M39.1281 28.9374C44.1751 28.9374 48.2876 25.0148 48.2876 19.6916C48.2876 14.3308 44.1751 10.4458 39.1281 10.4458C34.0813 10.4458 29.9688 14.3308 29.9688 19.6916C29.9688 25.0148 34.0813 28.9374 39.1281 28.9374ZM39.1281 14.0891C41.8946 14.0891 44.278 16.3651 44.278 19.6916C44.278 22.9806 41.8946 25.2941 39.1281 25.2941C36.3618 25.2941 33.9784 22.9847 33.9784 19.6916C33.9784 16.3651 36.3618 14.0891 39.1281 14.0891Z" fill="black"/>
<path fill-rule="evenodd" clip-rule="evenodd" d="M58.8879 28.9374C63.9348 28.9374 68.0473 25.0148 68.0473 19.6916C68.0473 14.3308 63.9348 10.4458 58.8879 10.4458C53.8409 10.4458 49.7285 14.335 49.7285 19.6916C49.7285 25.0148 53.8409 28.9374 58.8879 28.9374ZM58.8882 14.0891C61.6545 14.0891 64.0381 16.3651 64.0381 19.6916C64.0381 22.9806 61.6545 25.2941 58.8882 25.2941C56.1218 25.2941 53.7383 22.9847 53.7383 19.6916C53.7383 16.3651 56.1218 14.0891 58.8882 14.0891Z" fill="black"/>
<path fill-rule="evenodd" clip-rule="evenodd" d="M86.9843 27.6035V11.0085H83.1764V12.5133H83.0365C82.1349 11.4254 80.406 10.4458 78.2283 10.4458C73.663 10.4458 69.4805 14.5059 69.4805 19.7249C69.4805 24.9064 73.663 28.9332 78.2283 28.9332C80.4101 28.9332 82.139 27.9536 83.0365 26.8323H83.1764V28.1621C83.1764 31.7012 81.3116 33.5812 78.3024 33.5812C75.8489 33.5812 74.3257 31.8054 73.7041 30.3005L70.2132 31.772C71.2177 34.2231 73.8811 37.2203 78.3065 37.2203C83.0076 37.2203 86.9843 34.4316 86.9843 27.6035ZM78.586 14.0891C81.3153 14.0891 83.4601 16.4693 83.4601 19.7249C83.4601 22.9472 81.3153 25.2941 78.586 25.2941C75.8197 25.2941 73.502 22.9472 73.502 19.7249C73.502 16.4693 75.8197 14.0891 78.586 14.0891Z" fill="black"/>
<path d="M93.2624 1.2749V28.3704H89.3516V1.2749H93.2624Z" fill="black"/>
<path fill-rule="evenodd" clip-rule="evenodd" d="M111.613 24.8354L108.501 22.7344C107.464 24.2768 106.047 25.2939 104.006 25.2939C101.968 25.2939 100.515 24.3477 99.5806 22.4927L111.786 17.3737L111.37 16.3232C110.613 14.2598 108.295 10.4414 103.557 10.4414C98.8519 10.4414 94.9453 14.1889 94.9453 19.6872C94.9453 24.8729 98.819 28.9331 104.006 28.9331C108.188 28.9331 110.609 26.3402 111.613 24.8354ZM107.082 15.9773L98.9226 19.408C98.8197 15.8398 101.656 14.0181 103.694 14.0181C105.283 14.0181 106.633 14.8226 107.082 15.9773Z" fill="black"/>
<path d="M15.1664 17.2862V13.3636H28.2201C28.3477 14.0472 28.4136 14.8559 28.4136 15.7313C28.4136 18.6743 27.6191 22.3135 25.0586 24.9063C22.568 27.5325 19.3859 28.9331 15.1705 28.9331C7.3572 28.9331 0.787109 22.4886 0.787109 14.5767C0.787109 6.66481 7.3572 0.220215 15.1705 0.220215C19.4929 0.220215 22.5721 1.93761 24.8857 4.17611L22.1523 6.94411C20.4933 5.36831 18.2456 4.14281 15.1664 4.14281C9.46079 4.14281 4.99839 8.79911 4.99839 14.5767C4.99839 20.3543 9.46079 25.0105 15.1664 25.0105C18.8672 25.0105 20.9749 23.5057 22.3251 22.1384C23.4202 21.0296 24.1406 19.4455 24.4246 17.282L15.1664 17.2862Z" fill="black"/>
</svg>
