<svg width="22" height="20" viewBox="0 0 22 20" fill="none" xmlns="http://www.w3.org/2000/svg">
<path d="M9.91211 0.900391H11.6908V2.62774H9.91211V0.900391Z" fill="#E0B973"/>
<path d="M15.248 0.900391H17.0267V2.62774H15.248V0.900391Z" fill="#E0B973"/>
<path d="M4.57617 0.900391H6.35481V2.62774H4.57617V0.900391Z" fill="#E0B973"/>
<path d="M20.5842 2.62695H17.027V5.21798H15.2483V2.62695H11.691V5.21798H9.9124V2.62695H6.35512V5.21798H4.57648V2.62695H1.0192C0.78334 2.62695 0.557138 2.71795 0.390358 2.87992C0.223579 3.04189 0.129883 3.26157 0.129883 3.49063L0.129883 19.0368C0.129883 19.2658 0.223579 19.4855 0.390358 19.6475C0.557138 19.8095 0.78334 19.9005 1.0192 19.9005H20.5842C20.8201 19.9005 21.0463 19.8095 21.2131 19.6475C21.3799 19.4855 21.4735 19.2658 21.4735 19.0368V3.49063C21.4735 3.26157 21.3799 3.04189 21.2131 2.87992C21.0463 2.71795 20.8201 2.62695 20.5842 2.62695V2.62695ZM16.5101 13.6939L15.2483 12.8183V16.4458C15.2483 16.6748 15.1546 16.8945 14.9878 17.0565C14.8211 17.2184 14.5949 17.3094 14.359 17.3094H12.1357V13.8547C12.1357 13.6257 12.042 13.406 11.8752 13.244C11.7084 13.082 11.4822 12.9911 11.2464 12.9911H10.3571C10.1212 12.9911 9.89499 13.082 9.72821 13.244C9.56143 13.406 9.46774 13.6257 9.46774 13.8547V17.3094H7.24444C7.00858 17.3094 6.78237 17.2184 6.61559 17.0565C6.44881 16.8945 6.35512 16.6748 6.35512 16.4458V12.8183L5.0934 13.6939L4.05956 12.2882L10.2848 7.96986C10.4363 7.86674 10.6167 7.81141 10.8017 7.81141C10.9867 7.81141 11.1672 7.86674 11.3186 7.96986L17.5439 12.2882L16.5101 13.6939Z" fill="#E0B973"/>
</svg>
