<svg width="24" height="24" viewBox="0 0 24 24" fill="none" xmlns="http://www.w3.org/2000/svg">
<path d="M18 11.66V21C18 21.55 17.55 22 17 22H3C2.45 22 2 21.55 2 21V7C2 6.45 2.45 6 3 6H12.34" fill="white" fill-opacity="0.3"/>
<path fill-rule="evenodd" clip-rule="evenodd" d="M16.0004 1.40002C15.669 1.40002 15.4004 1.66865 15.4004 2.00002C15.4004 2.3314 15.669 2.60002 16.0004 2.60002H20.5519L9.57613 13.5758C9.34181 13.8101 9.34181 14.19 9.57613 14.4243C9.81044 14.6586 10.1903 14.6586 10.4247 14.4243L21.4004 3.44855V8.00002C21.4004 8.3314 21.669 8.60002 22.0004 8.60002C22.3318 8.60002 22.6004 8.3314 22.6004 8.00002V2.00002C22.6004 1.66865 22.3318 1.40002 22.0004 1.40002H16.0004Z" fill="white" fill-opacity="0.6"/>
</svg>
