<svg width="268" height="360" viewBox="0 0 268 360" fill="none" xmlns="http://www.w3.org/2000/svg">
<path d="M192.104 57.4912L217.892 70.857L181.221 127.875L155.433 114.509L192.104 57.4912Z" fill="#3F3D56"/>
<path d="M187.55 71.2933L208.072 82.33L207.789 82.7544L187.267 71.7177L187.55 71.2933Z" fill="#93BCD8"/>
<path d="M184.285 75.3855L204.807 86.4222L204.524 86.8466L184.002 75.81L184.285 75.3855Z" fill="#93BCD8"/>
<path d="M182.08 78.8507L202.601 89.8874L202.318 90.3118L181.796 79.2752L182.08 78.8507Z" fill="#93BCD8"/>
<path d="M178.771 83.306L199.293 94.3427L199.009 94.7671L178.488 83.7304L178.771 83.306Z" fill="#93BCD8"/>
<path d="M173.808 89.7415L194.33 100.778L194.046 101.203L173.525 90.1659L173.808 89.7415Z" fill="#93BCD8"/>
<path d="M98.5719 129.732C98.5719 129.732 84.3771 123.603 74.2762 125.888L98.5719 67.066V61.0259L64.1829 134.478C55.5849 149.027 44.7149 182.186 63.2478 184.848C84.274 187.868 122.121 199.194 122.121 199.194L130.532 133.507L98.5719 129.732Z" fill="#2F2E41"/>
<path d="M181.415 110.102C181.415 110.102 204.123 84.4314 210.011 93.4915C215.898 102.552 183.571 117.792 183.571 117.792L181.415 110.102Z" fill="#FFB9B9"/>
<path d="M173.846 110.857L183.097 106.327C183.097 106.327 188.985 119.917 188.985 122.182C188.985 124.447 179.733 125.202 179.733 125.202L173.846 110.857Z" fill="#D0CDE1"/>
<path d="M138.522 53.4757C126.445 53.4757 116.654 44.6869 116.654 33.8454C116.654 23.0038 126.445 14.215 138.522 14.215C150.599 14.215 160.389 23.0038 160.389 33.8454C160.389 44.6869 150.599 53.4757 138.522 53.4757Z" fill="#FFB9B9"/>
<path d="M121.701 31.5803C121.701 31.5803 112.449 56.4958 105.721 58.0058C98.9924 59.5159 131.793 70.8411 131.793 70.8411C131.793 70.8411 141.886 49.7007 146.932 44.4156C151.978 39.1305 121.701 31.5803 121.701 31.5803Z" fill="#FFB9B9"/>
<path opacity="0.1" d="M69.135 177.298C51.0063 174.694 61.0123 142.907 69.505 127.904C68.7354 128.431 68.0455 129.045 67.4529 129.732C59.0424 139.548 42.2214 181.828 63.2477 184.848C84.2739 187.868 122.121 199.194 122.121 199.194L123.265 190.257C112.451 187.141 85.6228 179.666 69.135 177.298Z" fill="black"/>
<path d="M40.1191 307.161C40.1191 307.161 19.0928 322.261 20.7749 323.771C22.457 325.281 40.1191 349.442 55.258 351.707C70.3969 353.972 77.1252 353.972 77.1252 351.707C77.1252 349.442 72.92 344.156 65.3506 341.891C57.7811 339.626 56.9401 324.526 57.7811 321.506C58.6222 318.486 40.1191 307.161 40.1191 307.161Z" fill="#2F2E41"/>
<path d="M103.197 194.664L89.7406 251.29C89.7406 251.29 34.2313 307.161 35.9134 307.916C37.5955 308.671 54.4165 323.771 57.7807 323.771C61.1449 323.771 119.177 264.88 119.177 264.88L140.204 215.804L103.197 194.664Z" fill="#2F2E41"/>
<path opacity="0.1" d="M103.197 194.664L89.7406 251.29C89.7406 251.29 34.2313 307.161 35.9134 307.916C37.5955 308.671 54.4165 323.771 57.7807 323.771C61.1449 323.771 119.177 264.88 119.177 264.88L140.204 215.804L103.197 194.664Z" fill="black"/>
<path d="M89.7408 176.543C89.7408 176.543 96.4691 202.214 114.972 219.579C133.475 236.944 141.886 272.43 141.886 272.43L160.389 343.401C160.389 343.401 193.19 339.626 191.508 332.076L173.846 269.41C173.846 269.41 153.661 182.583 142.727 176.543C131.793 170.503 89.7408 176.543 89.7408 176.543Z" fill="#2F2E41"/>
<path d="M162.071 337.361C162.071 337.361 157.025 351.707 160.389 353.217C163.753 354.727 223.468 357.747 226.832 347.177C226.832 347.177 228.514 341.891 215.057 341.891C201.6 341.891 187.303 330.566 187.303 330.566L162.071 337.361Z" fill="#2F2E41"/>
<path d="M136.84 67.8211C136.84 67.8211 114.972 48.1907 109.085 49.7007C103.198 51.2107 103.198 58.7609 103.198 58.7609C103.198 58.7609 84.6946 61.0259 86.3767 115.387C88.0588 169.748 71.2378 175.788 77.1252 178.808C83.0125 181.828 150.296 195.419 152.82 181.828C155.343 168.238 154.502 116.142 147.773 99.5317C141.045 82.9214 132.634 72.3512 136.84 67.8211Z" fill="#575A89"/>
<path d="M109.085 72.3512C109.085 72.3512 83.8536 82.9214 98.1514 103.307C112.449 123.692 123.383 145.588 138.522 144.833C153.661 144.078 177.21 131.242 183.939 131.242C190.667 131.242 181.415 109.347 176.369 108.592C171.323 107.837 147.773 120.672 147.773 120.672C147.773 120.672 139.363 69.3311 109.085 72.3512Z" fill="#575A89"/>
<path d="M125.906 36.0146C127.772 35.9147 129.593 36.4806 131.446 36.7014C138.073 37.4913 144.968 33.174 146.432 27.3176C146.549 26.5377 146.808 25.7804 147.198 25.0757C148.218 23.5807 150.541 23.2957 152.456 23.6395C154.371 23.9832 156.186 24.7878 158.137 24.8797C161.148 25.0215 164.039 23.3573 165.644 21.0656C167.248 18.7739 167.703 15.954 167.486 13.2541L166.042 14.6142C165.456 13.5001 165.229 12.2607 165.389 11.0368C164.624 10.8539 163.819 10.8504 163.052 11.0266C162.286 11.2027 161.582 11.5527 161.009 12.043C159.736 12.1646 160.697 9.9235 159.751 9.149C159.355 8.8247 158.748 8.88588 158.212 8.89052C155.504 8.91396 153.313 7.05465 151.179 5.55789C147.482 2.97029 143.159 1.19988 138.558 0.389765C135.501 -0.145625 132.249 -0.231664 129.349 0.790486C126.968 1.62992 124.974 3.15881 123.13 4.75073C118.59 8.66967 114.57 13.2743 112.681 18.6681C111.146 23.0861 111.102 27.8134 112.556 32.2535C113.317 34.5594 115.611 42.4565 118.969 42.6404C123.188 42.8715 120.655 36.2959 125.906 36.0146Z" fill="#2F2E41"/>
</svg>
