<svg width="410" height="428" viewBox="0 0 410 428" fill="none" xmlns="http://www.w3.org/2000/svg">
<g clip-path="url(#clip0_4_1)">
<path opacity="0.1" d="M169.205 404.784C210.392 404.784 243.78 400.71 243.78 395.686C243.78 390.661 210.392 386.588 169.205 386.588C128.018 386.588 94.6294 390.661 94.6294 395.686C94.6294 400.71 128.018 404.784 169.205 404.784Z" fill="black"/>
<path d="M168.891 402.274C207.829 402.274 232.149 396.958 232.149 355.373C232.149 313.789 207.829 251.683 168.891 251.683C129.954 251.683 104.162 313.789 104.162 355.373C104.162 396.958 129.954 402.274 168.891 402.274Z" fill="#6B6A73"/>
<path d="M165.962 428C181.806 428 227.716 429.317 227.716 412.477C227.716 395.636 181.806 367.016 165.962 367.016C150.117 367.016 139.622 392.166 139.622 409.007C139.622 425.847 150.117 428 165.962 428Z" fill="#A2A2A7"/>
<path d="M248.48 381.254L245.974 395.059L262.267 397.568L272.921 391.294L272.294 381.254H248.48Z" fill="#575A89"/>
<path d="M166.385 122.113C166.385 122.113 165.131 136.544 161.998 137.172C158.864 137.799 168.891 162.898 168.891 162.898H183.932L195.839 159.76L190.199 145.956C190.199 145.956 182.678 135.917 188.319 127.76C193.959 119.603 166.385 122.113 166.385 122.113Z" fill="#A0616A"/>
<path opacity="0.1" d="M166.385 122.113C166.385 122.113 165.131 136.544 161.998 137.172C158.864 137.799 168.891 162.898 168.891 162.898H183.932L195.839 159.76L190.199 145.956C190.199 145.956 182.678 135.917 188.319 127.76C193.959 119.603 166.385 122.113 166.385 122.113Z" fill="black"/>
<path d="M135.051 232.546C135.051 232.546 118.757 263.919 131.917 270.193C145.078 276.468 148.211 275.841 148.211 277.723C148.211 279.605 145.704 278.978 146.958 282.115C148.211 285.253 144.451 297.802 148.211 305.331C151.971 312.861 150.718 318.508 150.718 318.508C150.718 318.508 150.718 319.135 151.971 321.645C153.224 324.155 153.851 326.038 153.224 327.292C152.598 328.547 148.838 336.704 152.598 338.587C156.358 340.469 175.785 341.724 177.665 338.587C179.545 335.449 175.785 333.567 177.665 331.685C179.545 329.802 180.799 329.175 179.545 327.92C178.292 326.665 177.039 310.978 177.039 310.978C177.039 310.978 180.172 292.782 178.919 290.272C177.665 287.762 175.785 285.253 177.039 283.37C178.292 281.488 179.545 282.115 180.172 279.605C180.799 277.096 182.052 271.448 182.052 271.448L188.946 270.821L205.239 273.958C205.239 273.958 223.413 294.037 243.467 300.312C243.467 300.312 249.107 305.959 250.987 305.959C252.867 305.959 252.867 305.959 252.241 307.214C251.614 308.469 249.734 308.469 250.987 309.724C252.241 310.978 254.121 309.096 252.867 310.978C251.614 312.861 250.361 312.861 251.614 314.116C252.867 315.371 250.987 322.273 250.987 322.9C250.987 323.528 245.347 382.509 247.227 383.764C249.107 385.019 275.428 388.784 277.308 383.764C279.188 378.744 276.055 372.47 276.055 372.47C276.055 372.47 285.455 297.174 282.948 292.155C280.441 287.135 271.668 264.546 224.667 250.115C224.667 250.115 211.506 247.605 211.506 245.722C211.506 243.84 210.253 231.918 207.746 231.291C205.239 230.663 190.826 230.036 190.826 230.036L172.652 235.683L147.584 231.291L135.051 232.546Z" fill="#2F2E41"/>
<path d="M156.985 337.959L153.851 349.254C153.851 349.254 151.344 367.45 154.478 371.842C156.939 375.292 161.334 379.517 169.483 380.258C171.768 380.468 174.055 379.891 175.967 378.622C177.879 377.354 179.301 375.47 179.998 373.282C180.092 373.02 180.15 372.747 180.172 372.47C180.172 371.215 178.292 356.156 178.292 356.156L175.158 340.469L174.532 336.077L156.985 337.959Z" fill="#2F2E41"/>
<path d="M248.48 391.921C248.48 391.921 245.347 388.784 244.72 391.921C244.094 395.058 241.587 408.235 245.974 408.862C250.361 409.49 292.348 415.764 296.735 413.255C301.122 410.745 309.269 406.98 304.255 405.098C299.242 403.215 284.828 397.568 284.828 397.568C284.828 397.568 276.681 386.901 275.428 386.274C274.175 385.646 267.281 386.901 264.148 389.411C261.014 391.921 248.48 391.921 248.48 391.921Z" fill="#2F2E41"/>
<path d="M179.5 136.5C190.229 136.5 195.5 121.243 195.5 110.5C195.5 99.7573 192.155 96.3866 181.425 96.3866C170.696 96.3866 164 105.257 164 116C164 126.743 171 134 179.5 136.5Z" fill="#A0616A"/>
<path d="M179.545 159.76L172.025 151.603L163.689 135.289C163.689 135.289 157.611 133.407 156.358 136.544C155.104 139.682 132.544 149.721 132.544 149.721C132.544 149.721 138.184 202.428 135.677 207.447C133.17 212.467 128.784 232.546 132.544 234.428C136.304 236.311 153.851 234.428 159.491 236.938C165.131 239.448 181.425 239.448 185.812 236.311C190.199 233.173 191.452 230.663 195.839 232.546C199.573 234.148 208.304 179.362 210.818 163.035C211.029 161.664 210.854 160.261 210.31 158.984C209.766 157.708 208.877 156.609 207.742 155.813C202.119 151.864 191.992 145.059 190.199 145.956C187.692 147.211 179.545 159.76 179.545 159.76Z" fill="#E36C4B"/>
<path d="M206.493 157.25C207.964 157.619 209.288 158.429 210.286 159.573C211.284 160.716 211.909 162.138 212.077 163.648L217.146 209.33C217.146 209.33 204.613 236.311 198.346 218.114C192.079 199.918 206.493 157.25 206.493 157.25Z" fill="#E36C4B"/>
<path d="M205.239 213.722L219.026 209.957C219.026 209.957 221.533 227.526 224.04 227.526C226.546 227.526 215.266 237.565 209.626 236.311C203.986 235.056 195.839 230.663 195.212 227.526C194.586 224.389 200.852 211.212 200.852 211.212L205.239 213.722Z" fill="#E36C4B"/>
<path d="M167 121C168.321 118.084 167.851 118.911 168.943 115.901C169.528 114.289 170.477 112.835 171.716 111.651C172.956 110.467 174.451 109.587 176.087 109.077C177.722 108.568 179.453 108.445 181.144 108.716C182.835 108.988 184.44 109.647 185.835 110.642C187.24 111.645 189.785 111.842 191.5 111.651C193.347 111.445 191.802 112.107 193.5 112.863C195.382 113.701 193.094 114.425 195 115.205C196.004 115.616 198.921 113.781 199.5 112.863C200.006 111.898 201.726 111.089 201.75 110C202.013 107.324 203 108.716 204 105.5C203.513 104.678 204.359 102.386 204 101.5C203.797 100.672 201.707 97.3511 201.75 96.5C201.739 93.3545 199.997 92.6242 198.416 89.906C196.662 86.8897 193.419 84.961 190.035 84.1194C186.652 83.2778 183.107 83.4068 179.634 83.7013C173.891 84.188 174.024 81.4258 169.5 85.0001C168.885 85.4499 162.418 88.1685 162 88.8057C161.603 89.5626 158.227 91.6592 158.073 92.5C157.094 96.4883 156.286 95.4227 154.364 99.0507C153.439 100.589 154.937 107.5 154.364 109.2C153.884 110.929 153.916 112.898 154.921 114.384C155.738 115.593 157.046 116.238 158.073 117.226C159.09 118.206 159.566 120.09 160.694 120.832C161.678 121.48 162.857 121.023 163.86 121.709C165.149 122.591 165.482 120.294 167 121Z" fill="#2F2E41"/>
<path d="M182.678 169.172L184.559 165.407C184.559 165.407 212.133 173.564 217.773 181.094C217.773 181.094 231.56 172.309 239.08 173.564L246.6 174.819L223.413 195.526L193.959 193.016L182.678 169.172Z" fill="#F2F2F2"/>
<path d="M181.425 165.407L155.731 201.173L192.706 219.369C192.706 219.369 196.162 221.251 198.821 219.369L223.413 208.075L246.6 174.819L223.413 186.741C223.413 186.741 220.906 181.721 215.893 184.231L181.425 165.407Z" fill="#93BCD8"/>
<path d="M220.906 228.781L225.92 215.604C225.92 215.604 237.2 201.173 230.933 194.271C224.666 187.368 217.773 214.349 217.773 214.349L220.906 228.781Z" fill="#A0616A"/>
<path d="M163.062 226.678L174.001 217.798C174.001 217.798 190.991 210.981 189.028 201.862C187.066 192.744 167.583 212.62 167.583 212.62L163.062 226.678Z" fill="#A0616A"/>
<path opacity="0.1" d="M135.991 163.211H135.364C135.364 163.211 125.65 151.603 123.77 167.29C121.89 182.976 115.623 235.056 131.917 236.938C148.211 238.82 159.805 229.095 159.805 229.095C159.805 229.095 171.712 210.898 167.325 210.898C165.202 210.898 159.43 209.944 154.164 210.271C148.548 210.62 143.501 212.204 143.824 210.585C144.451 207.447 153.538 167.603 135.991 163.211Z" fill="black"/>
<path d="M135.05 150.976L132.544 149.721C132.544 149.721 122.517 151.603 120.637 167.29C118.757 182.976 112.49 235.056 128.784 236.938C145.077 238.82 167.011 234.428 167.011 234.428C167.011 234.428 171.398 210.585 167.011 210.585C162.625 210.585 140.064 213.722 140.691 210.585C141.317 207.447 152.598 155.368 135.05 150.976Z" fill="#E36C4B"/>
<path d="M211.819 221.565L218.73 210.961L223.1 228.467L211.819 233.487V221.565Z" fill="#E36C4B"/>
<path d="M183.403 114.211C182.343 119.668 182.647 122.041 183.403 125.308L180 124.489" stroke="#523E41"/>
<path d="M178.702 130.528C180.747 131.061 182.704 130.345 183.073 128.93L175.668 127C175.299 128.416 176.658 129.995 178.702 130.528Z" fill="white"/>
<circle cx="177.5" cy="118.5" r="1.5" fill="#512302"/>
<circle cx="188.5" cy="119.5" r="1.5" fill="#512302"/>
<path d="M186 116C188 115 190.5 115 192.5 116.5" stroke="#2F2E41" stroke-width="2" stroke-linecap="round"/>
<path d="M179.949 114.7C179 113.622 176 112.5 174 114" stroke="#2F2E41" stroke-width="2" stroke-linecap="round"/>
</g>
<defs>
<clipPath id="clip0_4_1">
<rect width="410" height="428" fill="white"/>
</clipPath>
</defs>
</svg>
