<svg width="565" height="512" viewBox="0 0 565 512" fill="none" xmlns="http://www.w3.org/2000/svg">
<path fill-rule="evenodd" clip-rule="evenodd" d="M557.626 514.021C554.724 513.187 551.1 512.972 547.926 512.82C536.707 512.159 525.268 517.513 514.268 519.926C509.452 521.118 504.354 522.521 499.201 523.566C494.626 524.188 489.897 524.654 485.142 524.951C481.299 525.066 476.827 524.771 475.515 528.815C467.79 530.315 460.951 530.938 453.587 529.664C454.277 527.315 454.67 524.86 453.957 522.33C454.317 521.731 454.807 520.92 455.068 520.374H454.183C441.258 515.195 427.281 511.658 414.288 506.292C397.329 500.174 372.352 488.353 352.756 480.281C354.085 472.999 354.577 465.6 354.014 458.407L354.801 457.77C355.06 456.356 355.462 454.665 356.19 453.384C357.115 450.929 357.136 447.578 357.503 444.803C358.269 439.375 358.78 431.203 357.387 424.759C356.778 416.02 350.893 409.283 344.547 403.879C336.756 396.166 328.955 388.641 321.348 380.63C279.252 337.673 275.923 283.569 210.023 267.126L209.991 266.87C209.471 266.291 209.259 265.831 208.667 266.747C206.492 265.912 203.778 265.982 201.956 264.571C198.721 261.618 196.426 258.208 194.926 254.161C193.77 246.513 194.588 234.724 187.893 229.829C180.457 225.371 140.949 222.197 137.542 231.944C135.428 233.932 134.467 236.456 133.806 239.547C131.605 243.715 130.216 248.337 127.998 252.569C123.284 262.06 120.228 259.957 111.905 262.126C111.001 260.11 108.259 260.517 106.26 260.809C82.0546 264.214 52.5434 273.506 42.1797 296.28L43.0617 296.167C25.1728 329.809 36.7741 372.594 39.9737 408.246C42.5616 439.936 39.6019 471.778 32.5685 501.338C23.9355 532.697 23.4401 567.775 40.5687 596.16C42.3096 599.409 44.4293 604.001 48.18 601.962C50.2353 603.518 52.5442 604.592 55.7331 605.528C56.6124 606.166 57.5227 607.239 58.4432 607.697C58.4864 607.759 59.9682 606.904 60.0459 606.881C62.8467 610.882 216.604 624.25 232.561 626.325C246.618 628.022 265.194 632.354 276.65 622.204C286.117 619.496 296.023 612.447 303.589 605.449C308.18 672.095 310.719 808.588 314.815 809.539C316.608 810.147 319.028 810.876 321.057 811.458C321.069 816.246 321.425 821.686 321.049 826.394C320.42 831.71 318.827 837.988 318.106 843.576C315.007 843.369 314.095 846.48 313.734 848.594C311.059 866.055 311.139 880.132 311.33 899.323C342.788 917.871 379.657 928.071 415.053 940.057C418.444 942.608 425.79 939.849 429.705 939.16C443.296 936.481 458.74 928.558 455.309 914.031C452.797 903.093 442.251 896.799 433.373 890.364C423.66 883.32 413.42 876.282 404.488 867.895C397.322 861.138 391.97 855.896 385.994 848.27C383.343 844.723 380.516 838.897 376.95 836.282C380.718 831.809 373.106 836.002 370.224 836.26C368.529 828.273 366.43 820.605 363.913 812.943L366.36 813.054C374.393 805.544 378.896 769.495 379.455 758.8C383.482 689.082 383.386 608.726 367.233 550.012C379.503 557.575 392.957 563.891 405.159 571.371C412.853 575.883 420.66 582.148 429.285 584.335C429.847 585.951 431.903 586.578 433.025 584.997C434.569 585.187 436.558 584.546 436.728 583.842C438.307 580.61 440.594 577.128 440.319 573.616C440.319 573.616 438.201 568.697 438.201 568.697C442.947 570.628 448.106 574.692 453.172 575.064C463.405 609.266 483.566 590.107 502.966 576.796C514.674 568.606 527.482 559.563 539.803 550.832C550.257 542.508 570.667 534.609 560.662 518.121" fill="white"/>
<path fill-rule="evenodd" clip-rule="evenodd" d="M117.85 260.037C127.732 257.633 129.421 233.915 135.388 237.293C138.838 240.296 133.195 245.962 132.197 249.351L131.759 250.212C129.734 254.16 127.445 258.095 123.455 260.371C120.89 263.074 113.224 260.42 114.351 264.726C118.287 277.701 139.177 286.685 151.489 290.725C170.625 297.921 201.581 295.486 206.077 271.364C195.581 269.441 187.821 250.48 194.29 242.586C194.51 250.254 196.603 258.168 202.616 263.363L202.947 263.668C204.005 264.635 205.375 265.788 206.741 265.574C208.072 263.717 210.657 264.773 211.418 266.733C271.181 277.075 284.494 341.605 322.13 379.587C329.648 387.511 337.507 395.098 345.264 402.781C353.187 409.075 358.794 417.848 359.185 428.15C359.893 433.88 359.542 439.615 358.785 445.354L358.732 445.872C358.381 449.429 358.173 453.249 356.482 456.406C356.19 457.476 356.308 458.829 355.383 459.584C355.787 466.132 355.403 472.797 354.297 479.325L357.18 480.613C388.909 494.761 421.004 508.095 454.088 518.701C456.916 518.187 456.685 521.478 455.316 522.974C455.677 524.734 455.716 526.564 455.293 528.304C461.351 529.176 467.505 528.451 473.485 527.346C475.377 523.175 480.403 523.397 484.289 523.28C489.118 522.977 493.938 522.505 498.731 521.835C510.542 519.194 522.139 515.718 533.836 512.664C541.663 510.459 550.104 510.564 557.956 512.593C559.29 514.089 560.522 515.688 561.562 517.385C568.739 528.526 561.667 538.736 551.648 544.589C535.573 555.995 519.495 567.387 503.349 578.689L502.176 579.527C482.966 593.291 461.354 610.714 451.095 577.212C447.647 576.808 444.625 574.491 441.412 573.124C442.277 577.144 439.696 581.205 437.917 584.652C437.15 586.615 435.056 587.262 433.122 587.244C431.467 588.87 428.36 588.23 427.277 586.301C418.495 583.785 411.24 577.909 403.467 573.344C392.414 566.624 380.82 560.895 369.609 554.459C388.234 631.655 383.679 712.067 378.722 790.647L378.687 791.357C378.073 802.829 375.445 808.256 365.94 815.288C367.596 820.345 369.077 825.422 370.207 830.623C370.606 831.83 372.441 830.694 372.456 832.351C375.833 831.56 382.696 832.406 380.301 837.083C387.081 842.778 391.671 850.494 397.614 856.988C408.081 869.548 421.763 878.895 435.178 888.106C466.017 903.837 467.785 931.098 431.703 940.411L431.341 940.496C426.373 941.693 420.389 944.43 415.572 942.126C408.366 940.737 401.215 937.925 394.166 935.784C365.78 926.381 338.017 915.37 311.116 902.715C310.14 902.256 309.588 901.205 309.563 900.154C309.863 891.471 307.508 843.891 316.501 842.867C318.509 833.147 318.825 823.112 318.46 813.191C315.543 812.273 312.593 811.386 309.571 810.812C306.637 809.887 302.049 809.68 300.085 807.3C299.379 807.045 298.861 806.413 298.967 805.415C300.556 790.505 301.76 775.556 302.639 760.588C305.649 710.388 304.627 660.032 301.199 609.887C294.136 616.002 286.087 621.356 277.126 624.204C272.18 629.165 264.25 630.229 257.498 630.83C248.816 631.368 240.287 629.632 231.719 628.552C217.169 626.719 202.721 628.342 188.277 630.14L183.341 630.756C147.979 634.639 109.763 635.442 76.8051 620.312C70.5997 620.864 62.896 614.15 59.025 609.664C57.3156 610.72 55.6361 608.656 54.2739 607.57C52.0259 606.887 49.4758 605.905 47.4357 604.471C42.2602 606.166 39.4684 599.44 37.5024 595.783C6.29965 542.292 41.049 489.048 38.4354 432.325C40.018 387.855 19.7556 341.525 39.3389 298.874C43.3006 280.825 66.4709 268.351 83.9113 263.764C89.5314 262.835 110.808 255.134 113.151 261.61C114.259 260.153 116.152 260.043 117.85 260.037ZM376.676 839.166C373.752 839.48 370.901 839.66 368.011 840.191C357.461 841.924 347.399 846.012 338.333 851.693C335.397 853.526 332.777 855.835 329.408 856.856C322.484 859.373 315.68 853.124 316.187 846.368C314.257 863.346 314.588 880.815 315.59 897.879C342.67 910.143 370.358 921.078 398.548 930.577C404.897 933.24 412.413 934.093 418.243 937.694C428.185 937.066 438.192 933.572 446.542 928.108C460.393 918.488 451.198 903.229 439.716 896.515C414.44 885.096 392.926 861.989 376.676 839.166ZM321.298 814.058C320.769 819.091 324.589 826.931 324.05 836.962C323.636 840.094 322.66 843.375 322.999 846.52C324.554 858.183 337.171 843.361 342.385 841.737C349.786 837.661 357.829 834.887 366.095 833.37C366.045 830.68 364.266 829.606 364.032 826.948C363.697 823.032 363.714 819.27 363.537 815.316C352.786 820.21 332.702 816.749 321.298 814.058ZM379.226 838.405C379.038 838.53 378.84 838.637 378.637 838.732C380.131 840.543 381.426 842.553 383.198 844.111L382.443 842.938C381.434 841.373 380.402 839.815 379.226 838.405ZM45.3132 421.086C44.7716 423.29 43.7849 425.363 42.307 427.125C49.9393 489.073 10.6715 540.716 46.7747 598.313C47.231 598.526 47.6473 598.791 48.0482 599.122C48.2605 598.981 48.4728 598.832 48.6811 598.682C65.603 568.707 89.6915 542.85 108.885 514.166C112.568 506.965 118.633 499.718 120.955 491.399C82.3842 476.153 66.9772 453.908 45.3132 421.086ZM552.911 515.05C551.276 515.635 549.456 515.152 547.711 515.12C541.515 514.988 535.459 516.606 529.533 518.242C512.296 522.961 494.968 527.139 477.309 529.934C476.952 530.304 476.611 530.681 476.301 531.078C476.607 531.597 476.654 532.246 476.21 532.89C473.546 537.985 475.699 544.222 473.764 549.675C470.96 560.715 463.501 573.167 452.37 577.085C456.082 580.626 458.742 585.184 462.566 588.601C471.965 595.05 482.316 585.438 489.988 580.285C504.597 569.954 519.243 559.696 533.93 549.479C540.51 544.02 555.065 537.139 558.214 529.907C560.231 524.362 556.559 518.96 552.911 515.05ZM452.236 529.125C445.948 541.963 442.318 555.611 438.687 569.395C442.464 570.434 445.943 572.064 449.656 573.159C454.884 574.336 462.267 564.221 464.888 560.205C467.591 555.715 469.484 550.781 470.361 545.611C471.102 540.548 470.313 535.291 472.513 530.601C465.701 531.298 458.791 531.444 452.236 529.125ZM78.4123 502.638C84.3172 500.982 70.8845 514.354 70.1108 515.781C61.3766 526.104 53.3743 537.008 45.4332 547.945L43.0258 551.264C42.7946 551.601 41.2003 553.959 42.3531 553.659C42.4586 553.632 42.5079 553.77 42.424 553.828C35.08 555.129 74.8711 503.547 78.4123 502.638ZM222.366 496.325C222.843 494.885 220.576 494.269 220.099 495.701L218.593 500.239C212.913 517.385 207.268 534.554 200.478 551.299C199.91 552.704 202.181 553.316 202.745 551.927C210.13 533.705 216.164 514.98 222.366 496.325ZM288.395 490.322C286.324 500.159 281.092 509.028 277.921 518.43C283.878 517.116 288.466 511.559 291.939 506.779L292.043 506.62C293.681 504.096 295.585 500.153 299.305 501.934C304.952 505.218 300.907 516.865 300.802 522.385C300.085 529.952 297.628 537.031 295.953 544.382C300.258 541.436 301.495 535.629 303.593 531.104L311.668 511.71V511.71C317.605 503.568 314.848 527.952 314.541 530.253C314.058 535.308 311.931 540.393 312.766 545.483C316.114 541.877 318.223 537.345 319.994 532.746C322.453 526.351 324.696 519.873 327.035 513.436C327.844 511.373 330.909 512.097 330.465 514.369C330.314 521.675 330.194 528.981 330.078 536.287L329.991 541.767C329.975 542.806 329.461 545.84 331.254 545.001C340.668 535.11 343.081 515.332 341.857 502.044C323.352 502.491 304.472 500.088 288.395 490.322ZM453.065 527.223C452.989 527.464 452.902 527.706 452.814 527.947C452.867 527.958 452.924 527.969 452.978 527.984C453.012 527.728 453.042 527.475 453.065 527.223ZM42.3698 527.223C40.3172 525.705 74.8177 481.36 72.5826 494.161C62.9574 505.562 51.7331 515.552 42.3698 527.223ZM347.056 429.232C314.791 421.644 286.378 449.99 253.977 445.707C254.352 455.86 254.873 466.081 254.668 476.238C297.697 479.791 292.801 498.125 342.335 496.279C348.736 491.987 351.364 465.683 350.824 457.742C351.238 448.354 343.167 444.139 335.128 442.492C332.223 444.248 327.011 439.01 331.325 437.167C337.002 435.457 342.314 432.769 347.056 429.232ZM109.028 262.832C97.5493 263.965 86.1801 267.097 75.6303 271.937C36.6324 283.208 31.0092 328.91 35.6985 363.542C37.6416 389.879 45.1439 415.637 60.9172 437.053C102.91 501.167 172.462 491.015 238.343 482.534C240.718 480.88 244.742 482.055 247.031 479.87C246.791 479.787 246.576 479.673 246.391 479.532C247.491 478.673 248.342 477.166 248.596 475.564L249.07 475.612V475.612C249.536 465.668 249.164 455.92 249.314 446.055C227.666 440.112 204.45 437.074 182.511 431.154C180.018 432.896 177.142 430.892 174.706 429.946C168.391 427.257 162.021 424.702 155.603 422.27L153.997 421.665C149.814 420.095 145.633 418.485 141.489 416.807L139.936 416.174C137.562 415.202 131.567 411.604 128.977 413.851L129.186 414.302C130.722 417.656 136.012 430.068 129.509 427.614C124.228 423.901 121.49 398.013 116.259 397.784C114.46 402.604 113.172 407.606 112.877 412.758C112.771 413.918 111.249 414.895 110.334 413.812C104.131 405.633 113.501 396.724 113.752 388.091C114.343 378.052 109.906 368.66 107.696 359.051L107.56 358.389C106.264 352.155 104.248 344.597 104.783 339.007L106.07 343.86C107.361 348.715 108.684 353.572 110.201 358.36C113.967 370.318 120.767 382.638 116.989 395.433C124.569 395.686 125.851 407.665 128.698 413.136C133.305 407.15 165.724 421.502 173.122 423.804L174.548 422.183C197.717 395.881 214.443 378.081 250.352 398.886C244.149 378.851 243.549 357.571 242.491 336.766C242.854 332.809 240.569 322.368 243.791 320.208C244.35 320.289 244.894 320.458 245.408 320.684L245.407 322.734C245.423 326.707 245.608 333.294 247.272 334.79L248.035 342.656C250.035 363.11 252.302 383.548 258.403 403.258C273.047 411.455 286.409 421.718 298.98 432.791L300.412 432.268C315.944 426.574 334.632 419.276 350.513 426.382C350.247 422.37 348.701 418.531 346.544 415.138C342.946 414.245 340.591 410.446 338.017 407.917C329.854 399.138 321.474 390.56 313.499 381.604C279.47 344.951 264.993 284.767 211.555 270.55C208.022 300.167 170.178 304.893 147.372 294.757L146.507 294.425C132.33 288.947 116.309 280.679 111.331 265.616L111.124 265.18C110.612 264.118 110.001 263.035 109.028 262.832ZM117.439 431.374C117.48 431.328 117.561 431.389 117.526 431.44C110.881 439.788 105.475 451.174 112.078 461.146C113.298 463.391 110.446 465.548 108.62 463.837C99.4547 453.416 109.623 439.291 117.439 431.374ZM348.602 433.26C344.948 435.871 341.031 438.041 336.881 439.752C336.894 440.231 336.661 440.743 336.45 441.118C341.913 441.553 347.603 442.966 351.438 446.955C351.624 445.496 351.806 444.033 351.946 442.57C352.299 438.805 351.655 435.437 348.602 433.26ZM97.3629 396.357L97.4053 396.156C97.4349 395.928 97.781 395.912 97.7708 396.156C97.6438 399.14 95.4752 401.263 93.6384 403.388C90.9127 406.54 88.1867 409.692 85.4599 412.843C80.9009 418.335 74.1847 423.856 75.6948 431.812C75.7233 434.638 72.186 435.244 70.7511 433.166C65.0437 422.268 83.0095 412.996 89.0654 405.965C91.909 402.922 96.3903 400.683 97.3629 396.357V396.357ZM182.905 429.075C182.99 429.211 183.051 429.358 183.083 429.508C184.04 429.61 184.993 429.719 185.945 429.836L182.905 429.075V429.075ZM40.0012 403.587C40.1717 404.726 40.3313 405.867 40.4841 407.01L40.6347 408.152L40.6582 408.052C40.7361 407.756 40.8833 407.498 41.0756 407.292L41.1414 407.226C40.7453 406.019 40.3653 404.806 40.0012 403.587ZM302.295 391.8C304.585 391.556 294.211 399.023 293.638 399.947C292.802 400.675 291.825 399.382 292.717 398.751C295.94 396.474 299.116 394.138 302.295 391.8ZM282.114 369.832C283.707 369.179 284.789 371.835 283.278 372.575C277.774 375.271 271.955 377.178 266.884 380.724C266.662 380.88 266.383 380.517 266.594 380.351L267.203 379.868C271.874 376.154 276.539 372.118 282.114 369.832ZM41.9017 336.253C43.4397 343.505 51.7618 345.887 58.2203 347.819L60.2383 348.589C65.9416 350.774 71.8501 353.233 75.9532 357.851C77.5615 363.06 66.086 353.986 64.484 353.526C56.6478 348.661 42.4886 347.834 41.9017 336.253ZM211.79 268.539C211.833 268.908 211.855 269.284 211.866 269.661C212.348 269.661 212.827 269.664 213.31 269.68C212.748 269.35 212.233 268.974 211.79 268.539Z" fill="black"/>
<path fill-rule="evenodd" clip-rule="evenodd" d="M229.994 169.239C227.443 138.112 219.677 110.543 183.186 109.368C166.718 109.515 149.908 113.017 134.764 119.498C97.9566 137.973 86.2781 205.484 118.707 232.66C118.514 232.77 118.467 233.087 118.695 233.241C125.395 237.753 132.842 241.466 140.3 244.585C160.167 252.994 183.555 256.646 203.817 247.525C234.737 234.353 235.201 197.702 229.994 169.239V169.239Z" fill="white"/>
<path fill-rule="evenodd" clip-rule="evenodd" d="M290.857 154.731C292.128 153.585 293.075 152.082 293.555 150.397C293.993 148.861 294.023 147.183 293.558 145.65C293.06 144.006 291.986 142.697 292.228 140.986C292.254 140.818 292.287 140.643 292.339 140.468C293.268 137.247 295.554 134.922 294.736 131.351C294.506 130.343 294.071 129.435 293.465 128.721C293.532 127.947 293.592 127.166 293.64 126.385C294.981 123.241 294.933 119.506 293.502 116.411C293.328 114.827 293.064 113.257 292.692 111.713C292.863 110.348 292.626 108.845 292.187 107.651C291.417 105.55 290.465 103.479 289.432 101.443C289.553 100.886 289.499 100.297 289.192 99.7739C288.634 98.8227 287.896 97.9864 287.142 97.1691C286.609 96.2157 286.072 95.2701 285.539 94.3367C285.293 93.9078 285.02 93.432 284.72 92.928C285.538 91.408 285.975 89.9267 285.11 88.1392C284.785 87.4678 283.891 86.9726 283.155 87.0165C282.35 87.0645 281.538 87.1006 280.722 87.1315C279.196 85.2871 277.467 83.6313 275.614 82.6783C273.738 81.0861 271.835 79.5237 269.985 77.9278C269.461 77.474 268.933 77.0201 268.409 76.5663C268.406 76.5551 268.402 76.5403 268.398 76.5291C268.012 75.1192 267.577 73.7279 267.142 72.3292C266.871 71.4625 266.789 70.5548 265.946 70.0823C264.184 69.0965 261.476 68.9403 259.454 68.7729C259.254 68.5943 259.053 68.4195 258.852 68.2409C259.77 65.7932 259.607 63.1929 258.451 60.7414C258.057 59.9081 256.69 59.5324 255.939 60.083C254.207 61.3552 252.153 61.8053 250.12 61.6193C247.132 59.3204 235.082 48.9245 233.22 47.8271C233.197 47.7876 233.178 47.7482 233.154 47.7091C232.107 46.0359 230.836 44.6922 229.407 43.6149C229.203 43.4018 228.999 43.1882 228.795 42.9747C228.974 41.6991 229.447 40.4674 230.207 39.437C230.289 39.3179 230.381 39.2026 230.474 39.091C231.805 37.5063 230.181 35.4677 228.323 36.2973C228.189 36.3568 228.055 36.4163 227.922 36.4796C226.493 37.1172 224.913 37.8102 223.267 38.395C222.665 38.1692 222.051 37.9646 221.491 37.7392L215.495 35.326C214.508 34.9287 213.465 34.5921 212.51 34.1252C212.177 31.9084 209.958 30.4547 207.653 30.5306C207.786 30.105 207.985 29.6917 208.265 29.3C208.346 29.1847 208.436 29.0731 208.529 28.9652C209.714 27.5851 208.131 25.0257 206.436 26.2533C206.318 26.3389 206.195 26.4244 206.076 26.51C205.605 26.8407 205.123 27.1509 204.636 27.4515C203.856 27.1108 202.978 27.033 202.058 27.3935C200.023 28.1914 198.146 29.0028 196.354 30.2534C196.281 30.3044 196.206 30.3472 196.132 30.3951C195.243 29.3193 193.83 28.5999 192.559 28.6077C192.533 28.6077 192.512 28.6073 192.489 28.6069C191.539 27.1565 189.795 26.3136 188.112 26.5185C188.226 24.4372 186.145 22.5798 184.25 22.354C182.036 22.0906 180.041 23.3774 179.376 25.5394C179.191 26.1413 179.006 26.7436 178.821 27.3459C177.102 26.4772 175.288 25.8117 173.393 25.4795C169.078 24.7229 164.859 25.5286 160.7 26.728C160.285 26.8478 159.87 26.9709 159.455 27.0936C158.862 26.4058 158.305 25.7016 157.774 25.0443C156.856 23.9097 154.652 24.8174 154.801 26.2756C154.904 27.2819 154.496 28.0058 153.839 28.5203C153.117 28.6259 152.419 28.6579 151.367 28.6367C149.976 28.6084 149.343 28.5649 147.888 27.9972C147.211 27.7331 146.367 27.0386 145.972 26.4151C144.458 24.0243 140.611 23.3803 138.779 25.66C136.852 24.8151 134.418 25.9803 133.348 27.623C132.788 28.482 131.619 28.9622 130.149 29.3751C129.045 29.6846 127.916 29.919 126.782 30.124C126.276 29.4376 125.212 28.9775 124.431 29.5529C123.903 29.9439 123.389 30.3453 122.883 30.7567C118.977 31.2954 115.092 31.3147 111.369 29.7903C108.216 28.4994 105.322 32.0249 105.842 34.9845C104.929 35.4603 103.938 35.7769 103.036 36.2754C101.069 37.3638 99.4532 39.0843 98.4685 41.1058C98.292 41.4677 98.1326 41.8353 97.9806 42.2047C97.2452 42.804 96.518 43.4192 95.8083 44.0684C94.6266 43.462 93.4487 42.8557 92.2671 42.2493C91.3827 41.7955 89.8927 42.1117 89.718 43.2872C89.4319 45.2216 88.737 46.8249 87.7449 48.1678C84.5195 49.8641 81.4168 51.7688 78.4479 53.8855C75.033 54.9568 71.4026 55.5818 68.4188 56.2849C67.3969 56.5267 66.8395 57.8621 67.4155 58.7512C68.0249 59.6924 68.6343 60.6335 69.24 61.5747C67.5418 63.2338 65.9477 64.9673 64.4428 66.7604C60.2551 71.7452 56.751 77.2099 53.6148 82.9982C52.3737 83.5004 51.1327 83.9989 49.8916 84.5011C48.6951 84.9847 48.1563 86.3759 49.1261 87.3989C49.5869 87.8863 49.9993 88.3996 50.3523 88.939C48.5947 91.8518 46.525 94.5079 43.6304 96.2488C42.7497 96.7771 42.0883 97.6066 41.7353 98.5478C41.4343 98.7487 41.137 98.9644 40.8435 99.1839C40.026 99.8014 39.5318 101.148 40.4905 101.948C41.163 102.513 41.7947 103.183 42.3298 103.923C42.445 104.344 42.5639 104.768 42.6828 105.188C39.9925 107.666 37.7556 110.545 36.076 113.774C35.6784 113.711 35.2697 113.751 34.939 113.997C31.9366 116.218 31.8474 119.756 33.0551 122.918C32.3268 127.683 32.795 132.567 34.1995 137.184C32.3528 139.029 31.2417 141.692 30.7884 144.259C29.9895 148.768 29.9337 155.702 29.7257 160.304C27.7117 162.249 26.2774 164.768 25.4784 167.476C24.8059 167.81 24.1333 168.145 23.4607 168.48C22.8625 168.778 22.424 169.563 22.4612 170.225C22.6321 173.428 23.9512 175.957 25.7014 178.249C26.3219 180.016 27.2398 181.645 28.4437 183.208C29.276 184.279 30.0898 185.306 30.807 186.463C30.8813 186.578 30.9259 186.686 30.9593 186.76C30.6769 187.065 30.4428 187.571 30.2384 187.932C28.5217 190.96 28.4957 194.509 30.9333 197.146C30.0155 197.898 29.9858 199.416 30.7958 200.346C36.0686 206.376 40.4645 213.708 47.781 216.911C47.8144 216.967 47.8441 217.022 47.8701 217.078C46.3875 220.649 46.1869 222.506 47.3982 226.196C47.4057 226.229 47.4168 226.259 47.428 226.293C48.0745 228.227 49.2636 231.326 51.4076 231.928C52.0839 232.118 52.7491 232.204 53.4068 232.2C55.1086 233.84 56.8068 235.485 58.5049 237.129C58.6535 237.944 58.7464 238.766 58.7762 239.595C58.8245 240.983 60.1287 242.106 61.5333 241.697C62.0275 241.552 64.7624 238.892 65.264 238.907C65.5167 239.16 65.7619 239.413 66.0072 239.67C66.9101 240.618 68.1624 242.114 68.2664 243.107C68.4671 244.978 69.6933 247.121 71.6739 247.5C72.417 248.255 73.6061 248.482 74.5165 247.497C74.5759 247.433 74.6354 247.37 74.6986 247.314C74.7952 247.303 74.8881 247.292 74.9847 247.281C75.4232 248.59 75.8616 249.9 76.3038 251.205C77.1696 253.78 80.4767 255.435 82.8251 253.932C83.2041 254.159 83.5757 254.401 83.9473 254.643C84.5121 255.004 85.0844 255.372 85.6715 255.718C85.7049 255.815 85.7383 255.911 85.7681 256.004C86.1471 257.161 87.7226 257.782 88.6924 257.116C88.9934 257.213 89.3018 257.291 89.614 257.355C91.2527 257.678 92.9025 257.589 94.4854 257.042C95.6188 256.655 96.7001 255.915 97.9189 255.814C97.9951 255.808 98.0735 255.813 98.1508 255.811C99.1451 257.85 101.417 259.608 103.208 260.205C105.553 260.987 107.954 260.707 110.09 259.75C110.666 260.903 111.39 261.995 112.255 263.005C112.734 263.563 113.6 263.444 114.094 263.005C115.033 262.172 115.965 261.335 116.896 260.497C117.571 260.237 118.251 259.925 118.961 259.635C121.18 258.727 123.614 258.351 125.667 257.04C126.642 256.417 127.558 255.622 128.313 254.701C129.736 253.879 131.043 252.855 132.22 251.682C132.807 251.685 133.42 251.548 134.015 251.246C136.501 249.982 137.809 247.407 137.924 244.774C139.938 240.031 141.127 234.971 141.454 229.793C141.558 228.093 141.576 226.378 141.446 224.678C141.357 223.48 141.056 222.68 140.603 221.598C140.45 221.245 140.313 220.921 140.205 220.564C140.231 219.418 140.246 218.272 140.261 217.13C140.569 216.167 141.119 215.27 141.885 214.515C143.07 213.347 143.613 210.922 142.535 209.478C141.833 208.544 141.134 207.611 140.432 206.677C140.629 202.671 141.588 196.294 139.462 195.625C139.548 195.03 139.73 194.442 139.834 193.85C140.332 191.008 140.034 188.468 138.526 185.983C138.21 185.466 137.942 185.008 137.723 184.562C137.586 183.743 137.448 182.925 137.311 182.106C137.099 180.845 136.891 179.573 136.712 178.293C136.619 176.664 136.534 175.035 136.441 173.402C136.356 171.899 136.259 170.396 136.159 168.889C136.2 168.216 136.259 167.543 136.344 166.869C136.854 162.855 138.492 161.371 141.331 158.581C141.777 158.51 142.219 158.432 142.654 158.343C144.679 157.923 146.797 157.272 148.882 157.506C151.145 157.759 153.17 158.737 155.37 157.487C156.016 157.115 157.439 156.089 157.562 155.274C157.569 155.222 157.581 155.177 157.595 155.144C157.748 155.122 157.945 155.103 158.067 155.099C159.814 155.04 161.482 155.728 163.243 155.538C165.328 155.315 167.193 154.389 168.42 153.016C169.991 153.403 171.597 153.578 173.228 153.362C174.595 153.183 175.822 152.737 177.033 152.075C177.914 151.599 177.635 151.461 178.594 151.848C180.775 152.733 182.748 153.901 185.204 153.295C186.479 152.983 187.579 152.294 188.504 151.368C188.723 151.152 189.095 150.829 189.344 150.524C190.51 151.115 193.446 152.451 193.929 152.57C195.296 152.904 196.746 152.852 198.076 152.406C199.053 152.079 200.25 151.186 201.108 151.004C202.219 150.765 204.686 152.313 206.013 152.845C208.339 153.779 210.803 154.009 213.158 153.046C213.969 152.715 215.544 151.394 216.15 151.405C217.134 152.622 219.884 159.277 220.709 161.706C224.05 171.527 224.915 202.191 223.373 210.014C223.314 210.245 223.251 210.471 223.188 210.702C221.292 217.506 219.319 224.425 216.15 230.764C213.158 236.738 209.023 242.117 203.089 245.38C196.935 248.765 189.711 249.654 182.793 249.197C178.337 248.906 173.956 248.01 169.646 246.886C167.394 246.302 165.161 245.651 162.939 244.974C161.969 244.681 160.984 244.405 160.033 244.063C158.353 243.457 157.473 243.408 155.864 244.186C154.4 244.893 154.024 246.98 154.786 248.293C156.027 250.435 158.301 250.584 160.497 251.209C162.734 251.845 164.979 252.455 167.238 253.002C171.567 254.044 175.967 254.844 180.403 255.212C188.348 255.878 196.534 254.851 203.765 251.38C204.582 250.986 205.37 250.566 206.132 250.112C205.849 250.506 205.563 250.9 205.273 251.291C204.471 252.374 205.065 254.215 206.191 254.806C206.548 254.992 206.905 255.171 207.265 255.346C207.313 255.461 207.365 255.576 207.425 255.692C208.454 257.76 210.609 258.98 212.805 259.508C215.414 260.133 218.335 259.691 220.988 259.613C223.448 259.538 225.908 259.464 228.364 259.389C228.943 259.375 229.523 259.356 230.103 259.337C233.023 259.248 235.94 259.162 238.857 259.073C241.458 258.995 241.336 259.196 243.777 258.154C244.866 257.686 245.758 257.023 246.508 256.142C246.976 255.934 247.43 255.695 247.864 255.424C249.262 254.553 250.503 253.385 251.647 252.098C253.591 252.712 256.314 252.143 256.693 249.699C257.303 245.789 262.379 244.119 264.749 241.292C266.663 239.011 268.03 236.024 267.96 233.156C272.783 230.82 275.406 224.663 276.019 219.44C276.306 217.019 276.261 214.426 276.673 211.963C276.856 211.766 277.019 211.558 277.156 211.334C278.368 209.374 279.423 207.354 280.352 205.286C281.615 204.374 283.135 203.813 284.726 203.72C288.635 203.493 289.37 198.214 285.643 196.942C285.625 196.934 285.61 196.931 285.591 196.923C286.602 194.394 286.517 191.399 285.29 189.003C285.343 188.743 285.391 188.486 285.439 188.226C287.531 185.975 288.731 182.847 288.598 179.8C289.553 179.127 290.623 178.606 291.793 178.282C293.603 177.784 293.614 175.574 292.276 174.585C291.737 174.187 291.292 173.722 290.92 173.208C291.845 170.426 291.481 167.208 289.59 164.924C290.79 163.384 291.99 161.844 293.19 160.304C293.986 159.284 294.405 157.554 293.19 156.587C292.414 155.966 291.637 155.348 290.857 154.731Z" fill="black"/>
<path fill-rule="evenodd" clip-rule="evenodd" d="M171.965 205.521C178.335 204.747 184.509 206.7 190.736 207.684C194.024 208.203 197.316 208.591 200.643 208.735C201.312 208.764 201.982 208.781 202.652 208.795C202.714 208.205 203.044 207.663 203.759 207.338C205.224 206.673 206.397 206.373 208.006 206.437C209.478 206.496 210.956 206.647 212.407 206.913C215.04 207.396 217.685 208.493 219.611 210.399C224.069 214.808 223.391 221.891 219.946 226.693C212.829 236.617 199.841 237.078 188.716 236.948L187.69 236.935C177.56 236.79 163.069 238.302 158.467 226.765C156.775 222.522 157.01 217.605 159.082 213.536C161.553 208.682 166.755 206.154 171.965 205.521ZM203.605 222.045L203.514 222.049C198.844 222.229 194.175 222.355 189.502 222.438C189.642 223.639 189.785 224.841 189.948 226.04C190.076 226.983 190.213 227.925 190.356 228.867C190.416 229.265 190.638 229.884 190.575 230.278L190.553 230.434V230.434C190.793 230.543 191.01 230.718 191.172 230.972C191.229 231.06 191.27 231.148 191.31 231.237C194.938 231.265 198.842 231.195 202.54 230.534L202.548 230.454V230.454C202.615 229.981 202.811 229.663 203.072 229.444C203.332 227.936 203.309 226.329 203.409 224.833C203.472 223.903 203.54 222.974 203.605 222.045ZM185.933 222.502C182.567 222.559 179.2 222.603 175.834 222.562L174.307 222.539V222.539C174.629 224.271 174.98 225.998 175.272 227.743C175.577 229.561 173.978 230.716 172.595 230.67C172.75 230.695 172.905 230.722 173.061 230.744C177.383 231.355 181.871 231.193 186.257 231.188C186.021 229.809 186.117 228.253 186.081 227.103L186.075 226.924C186.008 225.449 185.961 223.976 185.933 222.502ZM163.069 222.184C163.186 223.085 163.413 223.967 163.753 224.788C165.19 228.256 168.484 229.875 171.969 230.557C171.365 230.348 170.884 229.845 170.763 228.985C170.461 226.846 170.352 224.671 170.344 222.499C167.915 222.477 165.47 222.425 163.069 222.184ZM216.272 221.443C214.543 221.852 212.533 221.665 210.837 221.742C209.247 221.814 207.657 221.877 206.067 221.941C206.142 223.028 206.215 224.114 206.295 225.2C206.397 226.603 206.406 228.086 206.675 229.483C209.874 228.39 212.741 226.637 214.891 223.834C215.427 223.136 215.907 222.317 216.272 221.443ZM171.234 211.212C168.355 211.895 165.631 213.336 164.167 215.973C163.298 217.538 162.915 219.393 162.989 221.221C165.422 220.937 167.897 220.83 170.36 220.741C170.368 220.297 170.379 219.853 170.392 219.411L170.43 218.276C170.497 216.113 170.531 213.395 171.234 211.212ZM186.135 211.476L184.868 211.334C181.348 210.932 177.83 210.511 174.309 210.752C173.8 210.788 173.283 210.843 172.764 210.919C173.386 213.167 173.334 215.807 173.594 218.032C173.695 218.892 173.821 219.745 173.962 220.595L174.573 220.567V220.567C178.35 220.362 182.131 220.236 185.911 220.086C185.911 219.375 185.914 218.664 185.926 217.953L185.94 217.241C185.983 215.425 185.866 213.378 186.135 211.476ZM203.811 211.188C200.124 211.784 196.314 211.91 192.692 211.915C191.246 211.917 189.8 211.828 188.355 211.699C188.449 212.47 188.498 213.249 188.569 214.008C188.712 215.543 188.875 217.075 189.052 218.607L189.21 219.946V219.946C193.857 219.735 198.503 219.507 203.148 219.271L203.803 219.236V219.236L203.987 216.661C204.112 214.945 204.25 213.228 204.444 211.519L204.298 211.467V211.467C204.127 211.396 203.965 211.299 203.811 211.188ZM205.412 211.827C205.615 214.254 205.727 216.692 205.877 219.123L208.939 218.96C209.45 218.932 209.96 218.903 210.47 218.874C212.455 218.759 215.004 218.158 216.966 218.719C217.116 216.933 216.606 215.194 214.997 213.995C212.171 211.888 208.573 212.638 205.412 211.827ZM194.949 190.127C199.509 187.512 210.951 184.84 211.675 193.056C212.008 196.837 209.201 199.969 205.923 201.367L205.799 201.418C202.725 202.684 197.274 204.113 194.614 201.369C192.399 199.085 195.336 194.99 198.088 196.861C199.503 197.822 202.479 197.114 204.057 196.656L204.156 196.628C205.859 196.126 208.13 194.523 207.425 192.424C206.802 190.567 204.151 190.227 202.49 190.167C200.011 190.078 197.599 190.654 195.143 190.842C194.754 190.872 194.634 190.308 194.949 190.127ZM213.839 176.916C220.028 176.626 223.878 183.391 222.454 188.934C222.208 189.891 221.14 190.83 220.108 190.722L219.848 190.698C219.716 190.686 219.584 190.669 219.462 190.635C218.482 190.364 217.604 189.344 217.676 188.286L217.694 187.978C217.839 185.36 217.555 182.343 214.447 181.709C211.81 181.171 210.339 183.711 210.307 186.049C210.301 186.465 209.835 186.754 209.469 186.531C207.563 185.37 207.233 183.06 207.961 181.071C208.883 178.551 211.192 177.04 213.839 176.916ZM167.91 178.367C172.414 176.863 177.273 179.266 179.454 183.253C180.219 183.474 180.983 184.065 180.877 184.969C180.723 186.269 180.492 187.089 179.591 188.075C178.182 189.618 175.544 188.829 174.958 186.93L174.933 186.844C174.268 184.389 171.569 182.77 169.11 183.629C166.238 184.633 166.321 187.67 164.306 189.439C164.07 189.647 163.786 189.68 163.502 189.543C161.362 188.507 161.747 185.392 162.51 183.608C163.51 181.268 165.455 179.187 167.91 178.367ZM161.776 164.675C165.425 160.947 174.942 157.339 177.439 164.224C177.915 165.535 176.902 167.303 175.538 167.575C173.305 168.02 171.324 167.049 169.106 167.223C167.31 167.365 165.437 167.966 164.001 169.08C160.024 172.164 159.149 177.382 156.378 181.308C156.244 181.499 155.982 181.418 155.957 181.193C155.326 175.477 157.778 168.758 161.776 164.675ZM209.374 161.005C211.796 160.148 214.539 160.222 216.973 160.981C219.426 161.747 221.677 163.2 223.412 165.1C224.199 165.962 224.927 166.914 225.511 167.927C225.822 168.464 226.148 169.572 226.501 170.233C228.408 171.336 229.224 173.848 227.516 175.636L227.439 175.715L227.21 175.941C226.292 176.851 224.908 177.246 223.654 176.882C220.849 176.07 220.509 173.858 219.538 171.511C218.896 169.96 217.798 168.589 216.466 167.581C213.317 165.2 208.155 164.441 204.364 165.563C204.162 165.623 203.925 165.366 204.069 165.179C204.787 164.248 205.201 163.483 206.163 162.732C207.139 161.969 208.204 161.418 209.374 161.005Z" fill="black"/>
</svg>
