<svg width="137" height="337" viewBox="0 0 137 337" fill="none" xmlns="http://www.w3.org/2000/svg">
<path d="M56.1643 33.927C66.9073 33.927 75.6162 27.1447 75.6162 18.7783C75.6162 10.4119 66.9073 3.62964 56.1643 3.62964C45.4213 3.62964 36.7124 10.4119 36.7124 18.7783C36.7124 27.1447 45.4213 33.927 56.1643 33.927Z" fill="#3F3D56"/>
<path d="M95.0683 98.0167C110.538 98.0167 123.079 85.4952 123.079 70.0491C123.079 54.6031 110.538 42.0815 95.0683 42.0815C79.5981 42.0815 67.0571 54.6031 67.0571 70.0491C67.0571 85.4952 79.5981 98.0167 95.0683 98.0167Z" fill="#3F3D56"/>
<path d="M103.627 137.251H75.6162V172.987H103.627V137.251Z" fill="#FBBEBE"/>
<path d="M123.079 127.149H114.52V144.241H123.079V127.149Z" fill="#FBBEBE"/>
<path d="M79.3123 311.078L75.8121 321.567C75.8121 321.567 74.2532 329.334 79.3123 329.721C84.3713 330.108 92.5482 328.556 92.5482 328.556C92.5482 328.556 93.7149 325.061 92.5482 321.953C91.3815 318.845 87.8813 310.299 87.8813 310.299L79.3123 311.078Z" fill="#3C354C"/>
<path d="M105.765 311.464C105.765 311.464 100.318 325.061 104.598 327.391C108.878 329.721 114.716 327.778 119.383 329.721C124.05 331.664 136.889 327.005 136.889 327.005C136.889 327.005 138.448 322.732 129.888 321.567C129.888 321.567 120.574 314.572 120.574 313.021C120.574 311.469 115.128 311.464 115.128 311.464H105.765Z" fill="#3C354C"/>
<path d="M104.598 156.482C104.598 156.482 72.6995 163.085 68.8121 161.142C64.9246 159.199 61.0323 187.573 61.0323 187.573C61.0323 187.573 59.4734 204.664 64.9197 227.581C70.3661 250.497 64.9197 261.765 64.9197 261.765C64.9197 261.765 65.6992 283.516 71.5377 293.618C77.3762 303.721 77.3713 313.04 77.3713 313.04C77.3713 313.04 88.6463 314.205 89.0434 311.484C89.0434 311.484 84.3716 300.608 85.1511 290.51C85.9305 280.413 82.8176 260.986 82.8176 260.986C82.8176 260.986 87.8767 236.513 87.0973 227.214C86.3178 217.914 89.8229 198.081 91.7641 201.576C93.7054 205.071 98.7694 222.163 98.7694 225.662C98.7694 229.162 100.73 252.46 101.882 254.016C103.034 255.573 102.657 260.233 102.27 262.562C101.882 264.892 101.882 282.371 103.824 291.695C105.765 301.019 104.216 311.503 104.603 313.06C104.99 314.616 116.275 313.446 116.662 310.725C116.662 310.725 118.221 294.025 119.001 291.695C119.78 289.365 120.148 259.802 120.148 259.802C120.148 259.802 120.922 236.885 121.702 234.556C122.481 232.226 123.663 182.115 118.589 176.31C113.515 170.505 115.476 155.724 115.476 155.724L104.598 156.482Z" fill="#3F3D56"/>
<path d="M78.3763 88.8149C76.9351 91.5265 75.484 94.2626 74.582 97.2042C73.68 100.146 73.3663 103.332 74.2143 106.289C74.8211 108.135 75.6648 109.896 76.7243 111.526C77.567 113.084 78.6358 114.509 79.896 115.755C82.8373 118.437 87.112 118.975 91.0828 119.396C91.7639 119.51 92.46 119.498 93.1368 119.362C93.6797 119.205 94.1817 118.931 94.6075 118.559C96.3478 117.091 97.137 114.849 97.7743 112.686C99.2901 107.541 100.376 102.279 101.02 96.9546C101.169 96.1128 101.169 95.2513 101.02 94.4094C100.676 92.9411 99.4999 91.8006 98.6469 90.5378C97.6252 89.0288 97.0416 87.2671 96.9605 85.4475C96.9262 84.5615 96.9605 83.5826 96.4017 82.9072C96.0299 82.5395 95.5789 82.2616 95.083 82.0947C92.7643 81.1158 90.4504 80.1368 88.1268 79.1971C86.7248 78.6195 84.205 77.0826 82.7344 78.2182C81.4745 79.1971 82.0824 81.4682 81.5431 82.8289C80.7147 84.8944 79.4156 86.8571 78.3763 88.8149Z" fill="#FBBEBE"/>
<path opacity="0.1" d="M78.3763 88.8149C76.9351 91.5265 75.484 94.2626 74.582 97.2042C73.68 100.146 73.3663 103.332 74.2143 106.289C74.8211 108.135 75.6648 109.896 76.7243 111.526C77.567 113.084 78.6358 114.509 79.896 115.755C82.8373 118.437 87.112 118.975 91.0828 119.396C91.7639 119.51 92.46 119.498 93.1368 119.362C93.6797 119.205 94.1817 118.931 94.6075 118.559C96.3478 117.091 97.137 114.849 97.7743 112.686C99.2901 107.541 100.376 102.279 101.02 96.9546C101.169 96.1128 101.169 95.2513 101.02 94.4094C100.676 92.9411 99.4999 91.8006 98.6469 90.5378C97.6252 89.0288 97.0416 87.2671 96.9605 85.4475C96.9262 84.5615 96.9605 83.5826 96.4017 82.9072C96.0299 82.5395 95.5789 82.2616 95.083 82.0947C92.7643 81.1158 90.4504 80.1368 88.1268 79.1971C86.7248 78.6195 84.205 77.0826 82.7344 78.2182C81.4745 79.1971 82.0824 81.4682 81.5431 82.8289C80.7147 84.8944 79.4156 86.8571 78.3763 88.8149Z" fill="black"/>
<path d="M93.7052 89.6713C101.226 89.6713 107.324 83.5837 107.324 76.0742C107.324 68.5647 101.226 62.4771 93.7052 62.4771C86.184 62.4771 80.0869 68.5647 80.0869 76.0742C80.0869 83.5837 86.184 89.6713 93.7052 89.6713Z" fill="#FBBEBE"/>
<path d="M98.4849 110.366C95.9063 111.291 93.2445 112.089 90.5041 112.186C88.4513 112.207 86.4031 111.988 84.4009 111.535C80.2641 110.714 76.2014 109.557 72.2533 108.075C71.4101 109.734 71.1846 111.628 71.1111 113.488C70.9003 119.112 72.0229 124.692 72.4543 130.306C72.9984 137.442 72.4543 144.735 74.2926 151.646C74.3987 150.472 74.8565 149.357 75.6064 148.445C76.2314 147.773 76.9782 147.225 77.8075 146.83C81.5175 144.915 85.79 144.384 89.8571 145.332C92.215 145.89 94.72 146.933 96.9554 145.998C98.2888 145.435 99.2545 144.251 99.9948 143.008C101.252 140.764 102.148 138.338 102.652 135.817C104.122 129.337 104.319 122.636 104.495 115.989C104.544 114.213 105.309 108.932 103.833 107.63C102.799 106.724 102.495 108.016 101.75 108.692C100.78 109.456 99.6716 110.024 98.4849 110.366Z" fill="#F2F2F2"/>
<path d="M79.3173 87.0235C78.4104 86.3138 77.0672 86.534 76.0672 87.136C75.0671 87.7381 74.2582 88.5702 73.2435 89.1184C70.4296 90.6406 66.65 89.5246 63.9783 91.2964C61.4684 92.9655 61.037 96.4015 60.841 99.4067C60.3507 107.042 59.9291 114.732 58.0908 122.162C57.6006 124.119 57.0123 126.126 57.1986 128.143C57.3453 129.295 57.6182 130.427 58.0124 131.52L60.4243 139.043C61.542 142.538 62.6744 146.086 62.792 149.752C62.9097 153.418 62.0469 156.903 61.189 160.403C59.4935 167.297 58.3898 174.324 57.8898 181.406C57.7379 183.75 57.6741 186.197 58.6252 188.346C59.6056 190.593 61.5959 192.262 63.694 193.529C65.7922 194.797 68.0717 195.776 70.1257 197.122C74.2485 199.829 77.5574 204.092 82.3812 205.203C84.5921 205.692 86.9059 205.497 89.1315 205.066C89.1315 205.066 87.8716 147.936 84.3666 139.777C80.8615 131.618 77.7535 96.2742 77.7535 95.1093C77.7535 93.9444 79.3173 87.0235 79.3173 87.0235Z" fill="#93BCD8"/>
<path d="M98.2495 88.8931C98.2495 88.8931 116.657 88.8931 119.383 98.6039C122.108 108.315 111.603 124.242 111.603 124.242C111.603 124.242 115.883 155.704 117.824 158.812C119.765 161.92 118.996 168.112 118.996 168.112C120.405 172.374 120.672 176.93 119.77 181.327C118.216 188.317 112.378 200.749 112.378 200.749C112.378 200.749 104.598 200.749 102.652 205.408C100.706 210.068 100.318 185.209 100.318 185.209C100.318 185.209 93.3179 139.762 93.7052 137.046C94.0925 134.329 96.0386 111.795 96.8181 105.579C97.5975 99.3626 99.2937 91.2229 98.2495 88.8931Z" fill="#93BCD8"/>
<path d="M112.378 95.1094C112.378 95.1094 121.329 97.8259 121.329 100.934C121.329 104.042 124.07 120.742 124.07 126.18C124.07 131.618 122.903 132.396 124.07 134.339C125.236 136.283 111.623 135.504 111.623 135.504L109.147 113.366L112.378 95.1094Z" fill="#93BCD8"/>
<path d="M59.4683 123.077C59.4683 123.077 76.9789 124.242 80.0918 121.907C83.2047 119.572 96.4308 125.015 97.5976 128.123C98.7643 131.231 78.9202 131.618 75.8122 131.618C72.7042 131.618 57.9143 136.282 57.9143 136.282L59.4683 123.077Z" fill="#A0616A"/>
<path d="M23.4227 304.015C23.4227 304.015 15.2605 324.572 19.5009 327.019C23.7413 329.466 68.4542 327.724 68.4542 327.724C68.4542 327.724 75.9007 323.123 67.3905 319.932C67.3905 319.932 60.2921 319.579 55.684 316.745C51.076 313.911 45.7473 308.601 45.7473 308.601C45.7473 308.601 45.3943 300.809 42.5559 302.58C41.7069 303.139 40.9844 303.868 40.4347 304.722C39.8851 305.576 39.5206 306.536 39.3646 307.539L23.4227 304.015Z" fill="#3F3D56"/>
<path opacity="0.1" d="M23.4227 304.015C23.4227 304.015 15.2605 324.572 19.5009 327.019C23.7413 329.466 68.4542 327.724 68.4542 327.724C68.4542 327.724 75.9007 323.123 67.3905 319.932C67.3905 319.932 60.2921 319.579 55.684 316.745C51.076 313.911 45.7473 308.601 45.7473 308.601C45.7473 308.601 45.3943 300.809 42.5559 302.58C41.7069 303.139 40.9844 303.868 40.4347 304.722C39.8851 305.576 39.5206 306.536 39.3646 307.539L23.4227 304.015Z" fill="black"/>
<path d="M10.8288 310.299C10.8288 310.299 1.88232 332.814 6.5492 335.545C11.2161 338.276 60.238 336.323 60.238 336.323C60.238 336.323 68.41 331.277 59.0713 327.778C59.0713 327.778 51.2915 327.391 46.2324 324.283C41.1734 321.175 35.3398 315.336 35.3398 315.336C35.3398 315.336 34.9525 306.79 31.8396 308.733C30.9081 309.345 30.1153 310.145 29.5125 311.081C28.9096 312.018 28.51 313.07 28.3395 314.171L10.8288 310.299Z" fill="#3F3D56"/>
<path d="M56.7478 167.358L51.3014 216.304C51.3014 216.304 49.3406 239.611 43.5217 244.658C43.5217 244.658 43.5217 252.039 41.5608 254.369L38.8352 285.058C38.8352 285.058 42.7275 296.315 42.3402 298.273C41.953 300.231 43.8942 306.427 43.5069 307.206C43.1197 307.984 24.8296 307.206 24.8296 307.206L28.7219 244.668L40.7813 157.662L56.7478 167.358Z" fill="#93BCD8"/>
<path opacity="0.1" d="M56.7478 167.358L51.3014 216.304C51.3014 216.304 49.3406 239.611 43.5217 244.658C43.5217 244.658 43.5217 252.039 41.5608 254.369L38.8352 285.058C38.8352 285.058 42.7275 296.315 42.3402 298.273C41.953 300.231 43.8942 306.427 43.5069 307.206C43.1197 307.984 24.8296 307.206 24.8296 307.206L28.7219 244.668L40.7813 157.662L56.7478 167.358Z" fill="black"/>
<path d="M47.0216 165.802C47.0216 165.802 42.742 205.81 40.7958 214.356C39.5723 219.984 38.7921 225.698 38.4624 231.448C38.4624 231.448 38.0751 243.88 34.57 247.375C33.5473 248.386 32.7436 249.597 32.209 250.931C31.6743 252.266 31.4201 253.696 31.4621 255.133C31.4621 255.133 27.957 294.363 29.9032 299.027C31.8493 303.692 33.7955 307.573 31.864 310.676C29.9326 313.779 8.5198 313.784 8.5198 311.454C8.5198 309.125 8.51979 307.181 7.35307 306.017C6.18635 304.852 7.35307 297.471 7.35307 297.471C7.35307 297.471 2.68618 262.9 6.96579 252.803C11.2454 242.705 13.1916 215.114 13.1916 215.114C13.1916 215.114 10.0787 183.652 6.18635 178.601C2.29401 173.55 6.96579 155.685 6.96579 155.685L47.0216 165.802Z" fill="#93BCD8"/>
<path d="M36.0703 41.5577C36.5213 42.5856 37.6047 43.1582 38.59 43.7015C44.3011 46.8439 49.0807 51.4007 53.7868 55.9037C52.6122 51.9251 52.8636 47.662 54.4977 43.8484C55.0565 42.5513 55.7967 41.1515 55.3948 39.7957C55.0957 38.8168 54.2476 38.0728 53.4339 37.4365C51.5123 35.9527 49.5037 34.5847 47.4189 33.3397C45.9482 32.4685 42.9677 30.1534 41.2961 30.403C41.2078 32.6594 41.1637 34.676 40.1734 36.7659C39.9283 37.2848 36.2419 41.9493 36.0703 41.5577Z" fill="#A0616A"/>
<path d="M55.9681 46.5502C64.778 46.5502 71.9198 39.4194 71.9198 30.6232C71.9198 21.827 64.778 14.6963 55.9681 14.6963C47.1582 14.6963 40.0164 21.827 40.0164 30.6232C40.0164 39.4194 47.1582 46.5502 55.9681 46.5502Z" fill="#A0616A"/>
<path d="M56.7475 68.3065C56.7475 68.3065 59.4682 54.7094 51.6884 50.0498C43.9087 45.3901 34.9622 39.9523 34.9622 39.9523C34.9622 39.9523 32.2366 39.5607 31.0698 45.3901C31.0698 45.3901 8.89722 49.6631 6.55888 70.6363C4.22053 91.6096 8.11777 122.299 8.11777 122.299C8.11777 122.299 4.61761 149.101 0.337994 163.472C0.337994 163.472 -3.16707 166.58 12.3974 161.92C27.9619 157.26 55.1886 175.135 55.1886 175.135C55.1886 175.135 57.9142 172.414 57.9142 170.471C57.9142 168.528 61.0271 157.256 61.0271 157.256C61.0271 157.256 63.7479 109.48 64.9146 104.042C66.0813 98.6039 60.2477 69.0848 56.7475 68.3065Z" fill="#263563"/>
<path d="M52.2083 32.2677C53.1152 31.6559 54.2525 31.5433 55.3408 31.4356C56.4291 31.3279 57.5664 31.1811 58.4341 30.5154C59.9391 29.3603 60.0518 27.1284 61.1548 25.5866C62.748 23.3498 65.9295 23.0806 68.6797 23.1883C70.3611 23.2568 72.17 23.3596 73.5819 22.4541C74.9937 21.5486 75.6898 19.7621 76.18 18.1126C76.7634 16.1548 77.136 13.7662 75.6898 12.3174C74.7094 11.3091 73.1211 11.1085 72.0132 10.2225C70.9053 9.33662 70.3905 7.81441 69.768 6.48798C69.0572 4.86762 67.9331 3.46177 66.508 2.4108C64.4197 0.942427 61.7529 0.638964 59.2086 0.663437C56.6644 0.68791 54.1104 1.02563 51.5857 0.712382C49.517 0.457864 47.4532 -0.227374 45.3943 0.0760894C42.7667 0.462761 40.595 2.44506 39.2959 4.7602C37.9969 7.07533 37.4478 9.7184 36.9086 12.3125L35.4379 19.3754C34.9869 21.5682 34.531 23.8148 34.8791 26.0222C35.6046 30.6035 39.6636 34.2451 39.943 38.8705C40.2099 37.5926 40.7903 36.4009 41.6323 35.4023C42.4742 34.4036 43.5512 33.6293 44.7668 33.1487C45.0709 33.0004 45.4159 32.9573 45.7472 33.0264C46.1492 33.1585 46.3845 33.5599 46.6394 33.8976C47.3061 34.7835 49.3993 36.1246 50.5612 35.4981C51.6691 34.9352 50.8749 33.1732 52.2083 32.2677Z" fill="#3F3D56"/>
<path d="M12.0103 104.82C12.0103 104.82 9.28466 121.907 20.5646 120.356C20.5646 120.356 26.4031 119.577 27.1826 120.356C27.962 121.134 56.7477 116.083 60.64 111.81C60.64 111.81 65.3069 110.258 67.6404 112.588C69.9738 114.918 93.318 117.247 86.3226 110.253C79.3272 103.259 68.4296 101.707 68.4296 101.707L53.6446 102.481C53.6446 102.481 45.8648 104.815 41.1979 102.481C36.531 100.146 23.2902 100.953 23.2902 100.953L12.0103 104.82Z" fill="#A0616A"/>
<path d="M27.9571 50.8281C27.9571 50.8281 10.4514 52.786 10.4514 78.0175V110.253C10.4514 110.253 20.1774 105.98 22.1235 106.367C24.0697 106.754 31.8495 101.316 31.8495 101.316C31.8495 101.316 40.796 80.3473 40.0165 74.5228C39.2371 68.6982 39.6293 51.6015 27.9571 50.8281Z" fill="#263563"/>
<path d="M108.098 113.361L90.5925 125.793L101.485 126.958L116.657 114.139L108.098 113.361Z" fill="#3F3D56"/>
<path d="M121.716 132.009C121.716 132.009 125.996 145.225 120.163 149.101C114.329 152.978 104.598 135.504 104.598 135.504C104.598 135.504 94.0927 123.077 101.098 120.355C108.103 117.634 110.961 129.484 110.961 129.484L120.148 137.447L121.716 132.009Z" fill="#FBBEBE"/>
<path d="M95.0681 75.8787C103.661 75.8787 110.628 71.4433 110.628 65.972C110.628 60.5008 103.661 56.0654 95.0681 56.0654C86.4748 56.0654 79.5085 60.5008 79.5085 65.972C79.5085 71.4433 86.4748 75.8787 95.0681 75.8787Z" fill="#3F3D56"/>
<path d="M97.789 53.3486C104.019 53.3486 109.069 48.3062 109.069 42.0861C109.069 35.8661 104.019 30.8237 97.789 30.8237C91.5592 30.8237 86.509 35.8661 86.509 42.0861C86.509 48.3062 91.5592 53.3486 97.789 53.3486Z" fill="#3F3D56"/>
<path d="M55.9684 28.4892C64.2395 28.4892 70.9446 25.0115 70.9446 20.7215C70.9446 16.4316 64.2395 12.9539 55.9684 12.9539C47.6973 12.9539 40.9922 16.4316 40.9922 20.7215C40.9922 25.0115 47.6973 28.4892 55.9684 28.4892Z" fill="#3F3D56"/>
<path d="M41.9627 35.0918C44.8623 35.0918 47.2129 29.265 47.2129 22.0772C47.2129 14.8894 44.8623 9.0625 41.9627 9.0625C39.063 9.0625 36.7124 14.8894 36.7124 22.0772C36.7124 29.265 39.063 35.0918 41.9627 35.0918Z" fill="#3F3D56"/>
</svg>
