<svg width="761" height="400" viewBox="0 0 761 400" fill="none" xmlns="http://www.w3.org/2000/svg">
<g filter="url(#filter0_bd_410_30658)">
<rect x="432" y="110" width="268.182" height="200" rx="27.2727" fill="url(#paint0_linear_410_30658)" fill-opacity="0.6"/>
<rect x="432.25" y="110.25" width="267.682" height="199.5" rx="27.0227" stroke="black" stroke-opacity="0.2" stroke-width="0.5"/>
</g>
<g filter="url(#filter1_bd_410_30658)">
<rect x="380" y="70" width="295" height="220" rx="30" fill="url(#paint1_radial_410_30658)" fill-opacity="0.1"/>
<rect x="380.25" y="70.25" width="294.5" height="219.5" rx="29.75" stroke="white" stroke-opacity="0.3" stroke-width="0.5"/>
</g>
<path fill-rule="evenodd" clip-rule="evenodd" d="M635 130C646.046 130 655 121.046 655 110C655 98.9543 646.046 90 635 90C623.954 90 615 98.9543 615 110C615 121.046 623.954 130 635 130Z" fill="white"/>
<path d="M641.165 109.025L634.023 116.167L636.948 119.092L644.09 111.95L641.165 109.025Z" fill="#8352FD"/>
<path fill-rule="evenodd" clip-rule="evenodd" d="M626.105 101.956L632.333 108.183C632.322 108.245 632.316 108.308 632.316 108.373C632.316 108.955 632.789 109.427 633.371 109.427C633.953 109.427 634.426 108.955 634.426 108.373C634.426 107.79 633.953 107.318 633.371 107.318C633.306 107.318 633.243 107.324 633.182 107.335L626.954 101.107L637.916 103.182H637.926L639.871 110.327L635.326 114.873L628.18 112.918L626.105 101.956Z" fill="black"/>
<g clip-path="url(#clip0_410_30658)">
<path d="M403.619 108V96.022H401.478V108H403.619ZM411.737 95.7231C408.259 95.7231 406.068 98.1387 406.068 102.007C406.068 105.867 408.226 108.299 411.737 108.299C415.232 108.299 417.398 105.867 417.398 102.007C417.398 98.1387 415.224 95.7231 411.737 95.7231ZM411.737 97.5742C413.862 97.5742 415.215 99.2925 415.215 102.007C415.215 104.705 413.871 106.448 411.737 106.448C409.579 106.448 408.259 104.705 408.259 102.007C408.259 99.2925 409.612 97.5742 411.737 97.5742ZM419.308 104.754C419.416 106.921 421.233 108.299 423.981 108.299C426.886 108.299 428.688 106.854 428.688 104.53C428.688 102.712 427.667 101.7 425.234 101.144L423.856 100.828C422.371 100.479 421.765 100.006 421.765 99.1846C421.765 98.147 422.678 97.4663 424.056 97.4663C425.367 97.4663 426.297 98.1387 426.446 99.2095H428.497C428.397 97.1592 426.579 95.7231 424.064 95.7231C421.383 95.7231 419.606 97.1675 419.606 99.3257C419.606 101.102 420.627 102.173 422.802 102.671L424.354 103.028C425.89 103.385 426.546 103.916 426.546 104.788C426.546 105.809 425.525 106.547 424.114 106.547C422.595 106.547 421.532 105.85 421.399 104.754H419.308ZM435.627 96.022V108H440.118C443.704 108 445.754 105.8 445.754 101.957C445.754 98.1968 443.679 96.022 440.118 96.022H435.627ZM437.769 97.8232H439.835C442.185 97.8232 443.571 99.3506 443.571 101.99C443.571 104.688 442.218 106.199 439.835 106.199H437.769V97.8232ZM455.964 106.199H450.353V102.771H455.657V101.069H450.353V97.8232H455.964V96.022H448.211V108H455.964V106.199ZM458.072 104.754C458.18 106.921 459.998 108.299 462.746 108.299C465.651 108.299 467.452 106.854 467.452 104.53C467.452 102.712 466.431 101.7 463.999 101.144L462.621 100.828C461.135 100.479 460.529 100.006 460.529 99.1846C460.529 98.147 461.442 97.4663 462.82 97.4663C464.132 97.4663 465.062 98.1387 465.211 99.2095H467.261C467.162 97.1592 465.344 95.7231 462.829 95.7231C460.147 95.7231 458.371 97.1675 458.371 99.3257C458.371 101.102 459.392 102.173 461.567 102.671L463.119 103.028C464.655 103.385 465.311 103.916 465.311 104.788C465.311 105.809 464.29 106.547 462.878 106.547C461.359 106.547 460.297 105.85 460.164 104.754H458.072ZM472.001 108V96.022H469.859V108H472.001ZM485.315 103.219V101.725H480.343V103.36H483.224L483.215 103.609C483.182 105.302 481.937 106.439 480.111 106.439C477.978 106.439 476.641 104.746 476.641 101.99C476.641 99.2759 477.953 97.5825 480.044 97.5825C481.58 97.5825 482.651 98.3462 483.083 99.7324H485.216C484.834 97.292 482.809 95.7231 480.044 95.7231C476.633 95.7231 474.45 98.1719 474.45 102.007C474.45 105.883 476.608 108.299 480.078 108.299C483.273 108.299 485.315 106.315 485.315 103.219ZM489.873 108V99.749H490.014L495.891 108H497.742V96.022H495.683V104.273H495.542L489.665 96.022H487.806V108H489.873Z" fill="black"/>
<path d="M404.856 131.216C406.805 131.216 408.252 130.13 408.557 128.448H407.395C407.103 129.508 406.132 130.162 404.856 130.162C403.091 130.162 401.987 128.721 401.987 126.423C401.987 124.125 403.091 122.678 404.85 122.678C406.113 122.678 407.09 123.421 407.395 124.602H408.557C408.284 122.837 406.779 121.625 404.85 121.625C402.361 121.625 400.812 123.465 400.812 126.423C400.812 129.375 402.368 131.216 404.856 131.216ZM414.866 129.229C414.581 129.832 413.984 130.156 413.102 130.156C411.94 130.156 411.185 129.299 411.127 127.947V127.896H416.047V127.477C416.047 125.351 414.923 124.037 413.076 124.037C411.197 124.037 409.991 125.433 409.991 127.585C409.991 129.75 411.178 131.121 413.076 131.121C414.574 131.121 415.641 130.397 415.958 129.229H414.866ZM413.063 125.001C414.149 125.001 414.873 125.801 414.898 127.014H411.127C411.21 125.801 411.972 125.001 413.063 125.001ZM417.761 131H418.853V126.76C418.853 125.795 419.608 125.097 420.649 125.097C420.865 125.097 421.258 125.135 421.347 125.16V124.068C421.208 124.049 420.979 124.037 420.801 124.037C419.894 124.037 419.106 124.506 418.903 125.173H418.802V124.157H417.761V131ZM423.55 122.386V124.157H422.445V125.071H423.55V129.223C423.55 130.53 424.115 131.051 425.524 131.051C425.74 131.051 425.949 131.025 426.165 130.987V130.067C425.962 130.086 425.854 130.092 425.657 130.092C424.946 130.092 424.642 129.75 424.642 128.943V125.071H426.165V124.157H424.642V122.386H423.55ZM428.387 122.837C428.806 122.837 429.148 122.494 429.148 122.075C429.148 121.656 428.806 121.313 428.387 121.313C427.968 121.313 427.625 121.656 427.625 122.075C427.625 122.494 427.968 122.837 428.387 122.837ZM427.841 131H428.933V124.157H427.841V131ZM431.472 131H432.563V125.071H434.131V124.157H432.563V123.427C432.563 122.678 432.894 122.297 433.681 122.297C433.877 122.297 434.062 122.304 434.195 122.329V121.44C433.966 121.396 433.725 121.377 433.458 121.377C432.157 121.377 431.472 122.031 431.472 123.396V124.157H430.335V125.071H431.472V131ZM436.296 122.837C436.715 122.837 437.058 122.494 437.058 122.075C437.058 121.656 436.715 121.313 436.296 121.313C435.877 121.313 435.534 121.656 435.534 122.075C435.534 122.494 435.877 122.837 436.296 122.837ZM435.75 131H436.842V124.157H435.75V131ZM444.586 126.252C444.396 125.033 443.38 124.037 441.717 124.037C439.8 124.037 438.581 125.42 438.581 127.553C438.581 129.73 439.806 131.121 441.723 131.121C443.367 131.121 444.389 130.194 444.586 128.937H443.481C443.278 129.711 442.637 130.137 441.717 130.137C440.498 130.137 439.711 129.134 439.711 127.553C439.711 126.004 440.485 125.021 441.717 125.021C442.701 125.021 443.304 125.573 443.481 126.252H444.586ZM448.103 131.121C449.017 131.121 449.766 130.721 450.21 129.991H450.312V131H451.353V126.315C451.353 124.894 450.419 124.037 448.75 124.037C447.29 124.037 446.211 124.76 446.065 125.858H447.169C447.322 125.319 447.893 125.008 448.712 125.008C449.734 125.008 450.261 125.471 450.261 126.315V126.938L448.287 127.058C446.693 127.153 445.792 127.858 445.792 129.083C445.792 130.333 446.776 131.121 448.103 131.121ZM448.306 130.162C447.512 130.162 446.922 129.756 446.922 129.058C446.922 128.372 447.379 128.01 448.42 127.94L450.261 127.82V128.448C450.261 129.426 449.429 130.162 448.306 130.162ZM453.828 122.386V124.157H452.724V125.071H453.828V129.223C453.828 130.53 454.393 131.051 455.802 131.051C456.018 131.051 456.228 131.025 456.443 130.987V130.067C456.24 130.086 456.132 130.092 455.936 130.092C455.225 130.092 454.92 129.75 454.92 128.943V125.071H456.443V124.157H454.92V122.386H453.828ZM462.524 129.229C462.239 129.832 461.642 130.156 460.76 130.156C459.598 130.156 458.843 129.299 458.786 127.947V127.896H463.705V127.477C463.705 125.351 462.582 124.037 460.734 124.037C458.855 124.037 457.649 125.433 457.649 127.585C457.649 129.75 458.836 131.121 460.734 131.121C462.232 131.121 463.299 130.397 463.616 129.229H462.524ZM460.722 125.001C461.807 125.001 462.531 125.801 462.556 127.014H458.786C458.868 125.801 459.63 125.001 460.722 125.001Z" fill="black" fill-opacity="0.6"/>
<rect x="400" y="188" width="108" height="4" rx="2" fill="white" fill-opacity="0.2"/>
<rect x="400" y="200" width="58" height="4" rx="2" fill="white" fill-opacity="0.2"/>
<rect x="400" y="212" width="78" height="4" rx="2" fill="white" fill-opacity="0.2"/>
<rect x="400" y="224" width="58" height="4" rx="2" fill="white" fill-opacity="0.2"/>
<rect x="400" y="252" width="83" height="8" rx="4" fill="white" fill-opacity="0.4"/>
</g>
<g filter="url(#filter2_bd_410_30658)">
<rect x="280" y="50" width="315" height="220" rx="30" fill="url(#paint2_radial_410_30658)" fill-opacity="0.2"/>
<rect x="280.25" y="50.25" width="314.5" height="219.5" rx="29.75" stroke="white" stroke-opacity="0.3" stroke-width="0.5"/>
</g>
<g clip-path="url(#clip1_410_30658)">
<path fill-rule="evenodd" clip-rule="evenodd" d="M555 110C566.046 110 575 101.046 575 90C575 78.9543 566.046 70 555 70C543.954 70 535 78.9543 535 90C535 101.046 543.954 110 555 110Z" fill="#3913B8"/>
<g filter="url(#filter3_d_410_30658)">
<path d="M559.729 97.4717C557.242 98.9297 553.821 99.0795 550.379 97.5831C547.593 96.3804 545.281 94.2751 543.799 91.8696C544.51 92.471 545.34 92.9523 546.229 93.373C549.784 95.063 553.337 94.9473 555.837 93.3773C555.836 93.3757 555.835 93.3746 555.834 93.373C552.277 90.6063 549.253 86.9976 547 84.0508C546.526 83.5696 546.17 82.9681 545.814 82.4268C548.541 84.9529 552.869 88.1403 554.411 89.0429C551.15 85.5543 548.245 81.2241 548.364 81.3442C553.521 86.6369 558.324 89.6443 558.324 89.6443C558.483 89.7351 558.605 89.8108 558.704 89.8784C558.808 89.6102 558.899 89.3317 558.976 89.0429C559.806 85.9755 558.857 82.4869 556.782 79.6001C561.584 82.5472 564.43 88.0803 563.244 92.7117C563.213 92.8366 563.179 92.9599 563.143 93.081C563.157 93.0978 563.171 93.1151 563.185 93.133C565.556 96.1403 564.904 99.3278 564.608 98.7264C563.321 96.1728 560.94 96.9537 559.729 97.4717L559.729 97.4717Z" fill="white"/>
</g>
</g>
<g clip-path="url(#clip2_410_30658)">
<path d="M300.93 84.7544C301.038 86.9209 302.855 88.2988 305.603 88.2988C308.508 88.2988 310.31 86.8545 310.31 84.5303C310.31 82.7124 309.289 81.6997 306.856 81.1436L305.479 80.8281C303.993 80.4795 303.387 80.0063 303.387 79.1846C303.387 78.147 304.3 77.4663 305.678 77.4663C306.989 77.4663 307.919 78.1387 308.068 79.2095H310.119C310.019 77.1592 308.201 75.7231 305.686 75.7231C303.005 75.7231 301.229 77.1675 301.229 79.3257C301.229 81.1021 302.25 82.1729 304.424 82.6709L305.977 83.0278C307.512 83.3848 308.168 83.916 308.168 84.7876C308.168 85.8086 307.147 86.5474 305.736 86.5474C304.217 86.5474 303.154 85.8501 303.021 84.7544H300.93ZM319.374 79.4253H319.499L321.939 88H323.948L327.16 76.022H324.944L322.894 85.0117H322.777L320.387 76.022H318.486L316.128 85.0117H316.004L313.954 76.022H311.721L314.933 88H316.95L319.374 79.4253ZM331.51 88V76.022H329.368V88H331.51ZM336.606 88V83.1108H341.628V81.3677H336.606V77.8232H342.102V76.022H334.465V88H336.606ZM349.597 88V77.8232H353.291V76.022H343.77V77.8232H347.456V88H349.597ZM357.666 76.022H355.524V83.8745C355.524 86.4893 357.417 88.2988 360.446 88.2988C363.476 88.2988 365.369 86.4893 365.369 83.8745V76.022H363.227V83.6836C363.227 85.3188 362.223 86.4312 360.446 86.4312C358.67 86.4312 357.666 85.3188 357.666 83.6836V76.022ZM370.457 88V76.022H368.315V88H370.457Z" fill="black"/>
<path d="M304.856 111.216C306.805 111.216 308.252 110.13 308.557 108.448H307.395C307.103 109.508 306.132 110.162 304.856 110.162C303.091 110.162 301.987 108.721 301.987 106.423C301.987 104.125 303.091 102.678 304.85 102.678C306.113 102.678 307.09 103.421 307.395 104.602H308.557C308.284 102.837 306.779 101.625 304.85 101.625C302.361 101.625 300.812 103.465 300.812 106.423C300.812 109.375 302.368 111.216 304.856 111.216ZM314.866 109.229C314.581 109.832 313.984 110.156 313.102 110.156C311.94 110.156 311.185 109.299 311.127 107.947V107.896H316.047V107.477C316.047 105.351 314.923 104.037 313.076 104.037C311.197 104.037 309.991 105.433 309.991 107.585C309.991 109.75 311.178 111.121 313.076 111.121C314.574 111.121 315.641 110.397 315.958 109.229H314.866ZM313.063 105.001C314.149 105.001 314.873 105.801 314.898 107.014H311.127C311.21 105.801 311.972 105.001 313.063 105.001ZM317.761 111H318.853V106.76C318.853 105.795 319.608 105.097 320.649 105.097C320.865 105.097 321.258 105.135 321.347 105.16V104.068C321.208 104.049 320.979 104.037 320.801 104.037C319.894 104.037 319.106 104.506 318.903 105.173H318.802V104.157H317.761V111ZM323.55 102.386V104.157H322.445V105.071H323.55V109.223C323.55 110.53 324.115 111.051 325.524 111.051C325.74 111.051 325.949 111.025 326.165 110.987V110.067C325.962 110.086 325.854 110.092 325.657 110.092C324.946 110.092 324.642 109.75 324.642 108.943V105.071H326.165V104.157H324.642V102.386H323.55ZM328.387 102.837C328.806 102.837 329.148 102.494 329.148 102.075C329.148 101.656 328.806 101.313 328.387 101.313C327.968 101.313 327.625 101.656 327.625 102.075C327.625 102.494 327.968 102.837 328.387 102.837ZM327.841 111H328.933V104.157H327.841V111ZM331.472 111H332.563V105.071H334.131V104.157H332.563V103.427C332.563 102.678 332.894 102.297 333.681 102.297C333.877 102.297 334.062 102.304 334.195 102.329V101.44C333.966 101.396 333.725 101.377 333.458 101.377C332.157 101.377 331.472 102.031 331.472 103.396V104.157H330.335V105.071H331.472V111ZM336.296 102.837C336.715 102.837 337.058 102.494 337.058 102.075C337.058 101.656 336.715 101.313 336.296 101.313C335.877 101.313 335.534 101.656 335.534 102.075C335.534 102.494 335.877 102.837 336.296 102.837ZM335.75 111H336.842V104.157H335.75V111ZM344.586 106.252C344.396 105.033 343.38 104.037 341.717 104.037C339.8 104.037 338.581 105.42 338.581 107.553C338.581 109.73 339.806 111.121 341.723 111.121C343.367 111.121 344.389 110.194 344.586 108.937H343.481C343.278 109.711 342.637 110.137 341.717 110.137C340.498 110.137 339.711 109.134 339.711 107.553C339.711 106.004 340.485 105.021 341.717 105.021C342.701 105.021 343.304 105.573 343.481 106.252H344.586ZM348.103 111.121C349.017 111.121 349.766 110.721 350.21 109.991H350.312V111H351.353V106.315C351.353 104.894 350.419 104.037 348.75 104.037C347.29 104.037 346.211 104.76 346.065 105.858H347.169C347.322 105.319 347.893 105.008 348.712 105.008C349.734 105.008 350.261 105.471 350.261 106.315V106.938L348.287 107.058C346.693 107.153 345.792 107.858 345.792 109.083C345.792 110.333 346.776 111.121 348.103 111.121ZM348.306 110.162C347.512 110.162 346.922 109.756 346.922 109.058C346.922 108.372 347.379 108.01 348.42 107.94L350.261 107.82V108.448C350.261 109.426 349.429 110.162 348.306 110.162ZM353.828 102.386V104.157H352.724V105.071H353.828V109.223C353.828 110.53 354.393 111.051 355.802 111.051C356.018 111.051 356.228 111.025 356.443 110.987V110.067C356.24 110.086 356.132 110.092 355.936 110.092C355.225 110.092 354.92 109.75 354.92 108.943V105.071H356.443V104.157H354.92V102.386H353.828ZM362.524 109.229C362.239 109.832 361.642 110.156 360.76 110.156C359.598 110.156 358.843 109.299 358.786 107.947V107.896H363.705V107.477C363.705 105.351 362.582 104.037 360.734 104.037C358.855 104.037 357.649 105.433 357.649 107.585C357.649 109.75 358.836 111.121 360.734 111.121C362.232 111.121 363.299 110.397 363.616 109.229H362.524ZM360.722 105.001C361.807 105.001 362.531 105.801 362.556 107.014H358.786C358.868 105.801 359.63 105.001 360.722 105.001Z" fill="white" fill-opacity="0.6"/>
<rect x="300" y="168" width="108" height="4" rx="2" fill="white" fill-opacity="0.2"/>
<rect x="300" y="180" width="58" height="4" rx="2" fill="white" fill-opacity="0.2"/>
<rect x="300" y="192" width="78" height="4" rx="2" fill="white" fill-opacity="0.2"/>
<rect x="300" y="204" width="58" height="4" rx="2" fill="white" fill-opacity="0.2"/>
<rect x="300" y="232" width="83" height="8" rx="4" fill="white" fill-opacity="0.4"/>
</g>
<g filter="url(#filter4_bd_410_30658)">
<rect x="60" y="30" width="335" height="220" rx="30" fill="url(#paint3_radial_410_30658)" fill-opacity="0.6"/>
<rect x="60.25" y="30.25" width="334.5" height="219.5" rx="29.75" stroke="white" stroke-opacity="0.3" stroke-width="0.5"/>
</g>
<path fill-rule="evenodd" clip-rule="evenodd" d="M353 94C365.15 94 375 84.1503 375 72C375 59.8497 365.15 50 353 50C340.85 50 331 59.8497 331 72C331 84.1503 340.85 94 353 94Z" fill="black"/>
<path d="M348.96 84C351.146 84 352.92 82.208 352.92 80V76H348.96C346.774 76 345 77.792 345 80C345 82.208 346.774 84 348.96 84Z" fill="#0ACF83"/>
<path d="M345 72C345 69.792 346.774 68 348.96 68H352.92V76H348.96C346.774 76 345 74.208 345 72Z" fill="#A259FF"/>
<path d="M345 64C345 61.792 346.774 60 348.96 60H352.92V68H348.96C346.774 68 345 66.208 345 64Z" fill="#F24E1E"/>
<path d="M352.92 60H356.88C359.066 60 360.84 61.792 360.84 64C360.84 66.208 359.066 68 356.88 68H352.92V60Z" fill="#FF7262"/>
<path d="M360.84 72C360.84 74.208 359.066 76 356.88 76C354.694 76 352.92 74.208 352.92 72C352.92 69.792 354.694 68 356.88 68C359.066 68 360.84 69.792 360.84 72Z" fill="#1ABCFE"/>
<path d="M83.893 54.519V56.593H88.704V54.519H83.893ZM87.701 54.519C87.701 57.987 88.449 65.586 94.926 69.479C95.283 68.969 96.099 68.068 96.575 67.694C90.268 64.005 89.809 57.749 89.809 54.519H87.701ZM86.97 58.242C86.052 62.747 84.012 66.045 80.459 67.847C80.986 68.221 81.938 69.071 82.312 69.513C85.865 67.371 88.126 63.716 89.316 58.667L86.97 58.242ZM102.882 56.848V58.786H113.286V56.848H102.882ZM103.443 61.744V63.682H112.81V61.744H103.443ZM102.508 67.048V68.986H113.541V67.048H102.508ZM107.047 57.443V68.289H109.121V57.443H107.047ZM104.905 54.978C106.18 55.726 107.897 56.865 108.662 57.647L110.124 56.015C109.257 55.25 107.506 54.196 106.248 53.533L104.905 54.978ZM101.318 53.601C100.4 56.032 98.819 58.446 97.204 59.976C97.544 60.469 98.088 61.591 98.258 62.067C100.196 60.146 102.066 57.103 103.222 54.213L101.318 53.601ZM99.686 58.31V69.479H101.624V56.389L101.607 56.372L99.686 58.31ZM114.765 59.568V61.591H130.252V59.568H114.765ZM122.364 55.641V57.596H128.416V55.641H122.364ZM121.038 53.567V60.537H123.197V53.567H121.038ZM121.038 60.877V69.513H123.197V60.877H121.038ZM122.585 64.124C124.37 64.702 126.903 65.705 128.144 66.351L129.232 64.515C127.906 63.869 125.305 62.968 123.605 62.475L122.585 64.124ZM134.808 57.8V59.925H146.283V57.8H134.808ZM140.061 53.584V58.667H142.254V53.584H140.061ZM133.737 53.924V59.67C133.737 62.526 133.499 65.671 131.391 67.949C131.884 68.323 132.649 69.122 132.989 69.632C135.573 66.895 135.879 63.138 135.879 59.687V53.924H133.737ZM134.757 62.084V64.226H142.033V69.53H144.277V62.084H134.757Z" fill="white"/>
<path d="M84.9067 91.2222C86.9507 91.2222 88.4424 90.0542 88.709 88.2959V88.2578H87.2998L87.2871 88.2832C87.0269 89.3179 86.1191 89.9653 84.9067 89.9653C83.2563 89.9653 82.228 88.6006 82.228 86.4297V86.417C82.228 84.2397 83.2563 82.875 84.9004 82.875C86.1064 82.875 87.0269 83.605 87.2935 84.7285V84.7476H88.7026L88.709 84.7158C88.4678 82.894 86.9189 81.6182 84.9004 81.6182C82.355 81.6182 80.7744 83.459 80.7744 86.417V86.4297C80.7744 89.3813 82.3613 91.2222 84.9067 91.2222ZM93.3174 91.1333C95.082 91.1333 96.0342 90.1177 96.2627 89.21L96.2754 89.1528L94.9487 89.1592L94.9233 89.21C94.7583 89.5654 94.2314 90.0034 93.3491 90.0034C92.2129 90.0034 91.4893 89.2354 91.4639 87.915H96.3516V87.4326C96.3516 85.3633 95.1709 83.9731 93.2476 83.9731C91.3242 83.9731 90.0801 85.4141 90.0801 87.5659V87.5723C90.0801 89.7559 91.2988 91.1333 93.3174 91.1333ZM93.2539 85.103C94.187 85.103 94.8789 85.6997 94.9868 86.9312H91.4829C91.6035 85.7441 92.3145 85.103 93.2539 85.103ZM97.9893 91H99.3667V86.8804C99.3667 85.8838 100.084 85.2363 101.138 85.2363C101.398 85.2363 101.633 85.2681 101.88 85.3188V84.0493C101.741 84.0176 101.5 83.9858 101.277 83.9858C100.357 83.9858 99.7158 84.4175 99.4683 85.1475H99.3667V84.1064H97.9893V91ZM105.937 91.0444C106.203 91.0444 106.457 91.0127 106.679 90.9746V89.8765C106.489 89.8955 106.368 89.9019 106.159 89.9019C105.479 89.9019 105.2 89.5972 105.2 88.8545V85.1919H106.679V84.1064H105.2V82.3672H103.797V84.1064H102.718V85.1919H103.797V89.1846C103.797 90.5112 104.419 91.0444 105.937 91.0444ZM109.002 82.875C109.472 82.875 109.866 82.4878 109.866 82.0181C109.866 81.542 109.472 81.1548 109.002 81.1548C108.526 81.1548 108.139 81.542 108.139 82.0181C108.139 82.4878 108.526 82.875 109.002 82.875ZM108.311 91H109.682V84.1064H108.311V91ZM112.176 91H113.547V85.1919H115.064V84.1064H113.535V83.4463C113.535 82.748 113.833 82.3799 114.595 82.3799C114.811 82.3799 114.995 82.3926 115.122 82.4116V81.4023C114.887 81.3643 114.62 81.3389 114.309 81.3389C112.875 81.3389 112.176 82.0117 112.176 83.3828V84.1064H111.04V85.1919H112.176V91ZM117.331 82.875C117.8 82.875 118.194 82.4878 118.194 82.0181C118.194 81.542 117.8 81.1548 117.331 81.1548C116.854 81.1548 116.467 81.542 116.467 82.0181C116.467 82.4878 116.854 82.875 117.331 82.875ZM116.639 91H118.01V84.1064H116.639V91ZM122.917 91.1333C124.624 91.1333 125.608 90.2129 125.855 88.8735L125.868 88.8164H124.548L124.535 88.8481C124.313 89.5908 123.78 89.9844 122.917 89.9844C121.78 89.9844 121.076 89.0576 121.076 87.5342V87.5215C121.076 86.0361 121.768 85.1221 122.917 85.1221C123.831 85.1221 124.389 85.6299 124.542 86.3091L124.548 86.3281L125.868 86.3218V86.29C125.678 84.9507 124.643 83.9731 122.91 83.9731C120.898 83.9731 119.673 85.3379 119.673 87.5215V87.5342C119.673 89.7622 120.904 91.1333 122.917 91.1333ZM129.321 91.1143C130.235 91.1143 130.959 90.7207 131.365 90.0225H131.473V91H132.838V86.2837C132.838 84.8364 131.86 83.9731 130.127 83.9731C128.56 83.9731 127.474 84.7285 127.309 85.8584L127.303 85.9028H128.629L128.636 85.8774C128.801 85.3887 129.302 85.1094 130.064 85.1094C130.997 85.1094 131.473 85.5283 131.473 86.2837V86.8931L129.607 87.001C127.963 87.1025 127.036 87.8198 127.036 89.0513V89.064C127.036 90.3145 128.007 91.1143 129.321 91.1143ZM128.407 89.0068V88.9941C128.407 88.3721 128.839 88.0293 129.791 87.9722L131.473 87.8643V88.4546C131.473 89.3433 130.718 90.0161 129.689 90.0161C128.947 90.0161 128.407 89.6416 128.407 89.0068ZM137.383 91.0444C137.649 91.0444 137.903 91.0127 138.125 90.9746V89.8765C137.935 89.8955 137.814 89.9019 137.605 89.9019C136.926 89.9019 136.646 89.5972 136.646 88.8545V85.1919H138.125V84.1064H136.646V82.3672H135.244V84.1064H134.165V85.1919H135.244V89.1846C135.244 90.5112 135.866 91.0444 137.383 91.0444ZM142.55 91.1333C144.314 91.1333 145.267 90.1177 145.495 89.21L145.508 89.1528L144.181 89.1592L144.156 89.21C143.991 89.5654 143.464 90.0034 142.582 90.0034C141.445 90.0034 140.722 89.2354 140.696 87.915H145.584V87.4326C145.584 85.3633 144.403 83.9731 142.48 83.9731C140.557 83.9731 139.312 85.4141 139.312 87.5659V87.5723C139.312 89.7559 140.531 91.1333 142.55 91.1333ZM142.486 85.103C143.419 85.103 144.111 85.6997 144.219 86.9312H140.715C140.836 85.7441 141.547 85.103 142.486 85.103Z" fill="white" fill-opacity="0.6"/>
<rect x="80" y="148" width="108" height="4" rx="2" fill="white" fill-opacity="0.3"/>
<rect x="80" y="160" width="58" height="4" rx="2" fill="white" fill-opacity="0.3"/>
<rect x="80" y="172" width="78" height="4" rx="2" fill="white" fill-opacity="0.3"/>
<rect x="80" y="184" width="58" height="4" rx="2" fill="white" fill-opacity="0.3"/>
<rect x="80" y="212" width="83" height="8" rx="4" fill="white" fill-opacity="0.6"/>
<rect x="287" y="188" width="68" height="4" rx="2" fill="white" fill-opacity="0.3"/>
<rect x="287" y="200" width="38" height="4" rx="2" fill="white" fill-opacity="0.3"/>
<rect x="287" y="212" width="53" height="8" rx="4" fill="white" fill-opacity="0.6"/>
<defs>
<filter id="filter0_bd_410_30658" x="372" y="70" width="388.182" height="330" filterUnits="userSpaceOnUse" color-interpolation-filters="sRGB">
<feFlood flood-opacity="0" result="BackgroundImageFix"/>
<feGaussianBlur in="BackgroundImage" stdDeviation="20"/>
<feComposite in2="SourceAlpha" operator="in" result="effect1_backgroundBlur_410_30658"/>
<feColorMatrix in="SourceAlpha" type="matrix" values="0 0 0 0 0 0 0 0 0 0 0 0 0 0 0 0 0 0 127 0" result="hardAlpha"/>
<feOffset dy="30"/>
<feGaussianBlur stdDeviation="30"/>
<feColorMatrix type="matrix" values="0 0 0 0 0.1525 0 0 0 0 0.301667 0 0 0 0 0.6 0 0 0 0.1 0"/>
<feBlend mode="normal" in2="effect1_backgroundBlur_410_30658" result="effect2_dropShadow_410_30658"/>
<feBlend mode="normal" in="SourceGraphic" in2="effect2_dropShadow_410_30658" result="shape"/>
</filter>
<filter id="filter1_bd_410_30658" x="320" y="30" width="415" height="350" filterUnits="userSpaceOnUse" color-interpolation-filters="sRGB">
<feFlood flood-opacity="0" result="BackgroundImageFix"/>
<feGaussianBlur in="BackgroundImage" stdDeviation="20"/>
<feComposite in2="SourceAlpha" operator="in" result="effect1_backgroundBlur_410_30658"/>
<feColorMatrix in="SourceAlpha" type="matrix" values="0 0 0 0 0 0 0 0 0 0 0 0 0 0 0 0 0 0 127 0" result="hardAlpha"/>
<feOffset dy="30"/>
<feGaussianBlur stdDeviation="30"/>
<feColorMatrix type="matrix" values="0 0 0 0 0.1525 0 0 0 0 0.301667 0 0 0 0 0.6 0 0 0 0.2 0"/>
<feBlend mode="normal" in2="effect1_backgroundBlur_410_30658" result="effect2_dropShadow_410_30658"/>
<feBlend mode="normal" in="SourceGraphic" in2="effect2_dropShadow_410_30658" result="shape"/>
</filter>
<filter id="filter2_bd_410_30658" x="220" y="10" width="435" height="350" filterUnits="userSpaceOnUse" color-interpolation-filters="sRGB">
<feFlood flood-opacity="0" result="BackgroundImageFix"/>
<feGaussianBlur in="BackgroundImage" stdDeviation="20"/>
<feComposite in2="SourceAlpha" operator="in" result="effect1_backgroundBlur_410_30658"/>
<feColorMatrix in="SourceAlpha" type="matrix" values="0 0 0 0 0 0 0 0 0 0 0 0 0 0 0 0 0 0 127 0" result="hardAlpha"/>
<feOffset dy="30"/>
<feGaussianBlur stdDeviation="30"/>
<feColorMatrix type="matrix" values="0 0 0 0 0.1525 0 0 0 0 0.301667 0 0 0 0 0.6 0 0 0 0.2 0"/>
<feBlend mode="normal" in2="effect1_backgroundBlur_410_30658" result="effect2_dropShadow_410_30658"/>
<feBlend mode="normal" in="SourceGraphic" in2="effect2_dropShadow_410_30658" result="shape"/>
</filter>
<filter id="filter3_d_410_30658" x="494.468" y="30.269" width="119.781" height="117.862" filterUnits="userSpaceOnUse" color-interpolation-filters="sRGB">
<feFlood flood-opacity="0" result="BackgroundImageFix"/>
<feColorMatrix in="SourceAlpha" type="matrix" values="0 0 0 0 0 0 0 0 0 0 0 0 0 0 0 0 0 0 127 0" result="hardAlpha"/>
<feOffset/>
<feGaussianBlur stdDeviation="24.6655"/>
<feColorMatrix type="matrix" values="0 0 0 0 0.250017 0 0 0 0 0.215353 0 0 0 0 0.847968 0 0 0 0.610768 0"/>
<feBlend mode="normal" in2="BackgroundImageFix" result="effect1_dropShadow_410_30658"/>
<feBlend mode="normal" in="SourceGraphic" in2="effect1_dropShadow_410_30658" result="shape"/>
</filter>
<filter id="filter4_bd_410_30658" x="0" y="-10" width="455" height="350" filterUnits="userSpaceOnUse" color-interpolation-filters="sRGB">
<feFlood flood-opacity="0" result="BackgroundImageFix"/>
<feGaussianBlur in="BackgroundImage" stdDeviation="20"/>
<feComposite in2="SourceAlpha" operator="in" result="effect1_backgroundBlur_410_30658"/>
<feColorMatrix in="SourceAlpha" type="matrix" values="0 0 0 0 0 0 0 0 0 0 0 0 0 0 0 0 0 0 127 0" result="hardAlpha"/>
<feOffset dy="30"/>
<feGaussianBlur stdDeviation="30"/>
<feColorMatrix type="matrix" values="0 0 0 0 0.1525 0 0 0 0 0.301667 0 0 0 0 0.6 0 0 0 0.2 0"/>
<feBlend mode="normal" in2="effect1_backgroundBlur_410_30658" result="effect2_dropShadow_410_30658"/>
<feBlend mode="normal" in="SourceGraphic" in2="effect2_dropShadow_410_30658" result="shape"/>
</filter>
<linearGradient id="paint0_linear_410_30658" x1="700" y1="110" x2="432" y2="310" gradientUnits="userSpaceOnUse">
<stop stop-color="white"/>
<stop offset="1" stop-color="white" stop-opacity="0"/>
</linearGradient>
<radialGradient id="paint1_radial_410_30658" cx="0" cy="0" r="1" gradientUnits="userSpaceOnUse" gradientTransform="translate(675 290) rotate(-162.738) scale(370.697 355.657)">
<stop stop-color="#33FDF1"/>
<stop offset="1" stop-color="#C86000"/>
</radialGradient>
<radialGradient id="paint2_radial_410_30658" cx="0" cy="0" r="1" gradientUnits="userSpaceOnUse" gradientTransform="translate(595 270) rotate(-163.719) scale(328.16 296.848)">
<stop stop-color="#33A8FD"/>
<stop offset="1" stop-color="#4C00C8"/>
</radialGradient>
<radialGradient id="paint3_radial_410_30658" cx="0" cy="0" r="1" gradientUnits="userSpaceOnUse" gradientTransform="translate(395 250) rotate(-168.053) scale(748.206 639.981)">
<stop stop-color="#FD3F33"/>
<stop offset="0.458333" stop-color="#4C00C8"/>
<stop offset="1" stop-color="#4C00C8"/>
</radialGradient>
<clipPath id="clip0_410_30658">
<rect width="108" height="170" fill="white" transform="translate(400 90)"/>
</clipPath>
<clipPath id="clip1_410_30658">
<rect width="40" height="40" fill="white" transform="translate(535 70)"/>
</clipPath>
<clipPath id="clip2_410_30658">
<rect width="108" height="170" fill="white" transform="translate(300 70)"/>
</clipPath>
</defs>
</svg>
