<svg width="132" height="33" viewBox="0 0 132 33" fill="none" xmlns="http://www.w3.org/2000/svg">
<path fill-rule="evenodd" clip-rule="evenodd" d="M62.4074 12.9981C63.4294 12.208 64.6734 11.682 65.9794 11.6447C67.5494 11.5223 69.1244 12.0618 70.3454 13.0357C70.804 13.3393 71.1221 13.8208 71.4408 14.303C71.5098 14.4075 71.5788 14.512 71.6494 14.6147V11.983H73.8604V31.7582H71.6494C71.6498 30.6785 71.6495 29.5963 71.6491 28.5145C71.6487 27.1631 71.6482 25.8124 71.6494 24.4685C71.6234 24.1282 71.2854 24.565 71.3094 24.6715C71.2781 24.7098 71.2465 24.7488 71.2145 24.7883C70.9074 25.167 70.5656 25.5886 70.1934 25.8182C68.5544 27.079 66.2814 27.3973 64.3194 26.778C63.7077 26.6198 63.1282 26.253 62.6116 25.926C62.5226 25.8697 62.4355 25.8145 62.3504 25.7618C61.6374 25.1762 61.1534 24.4906 60.7024 23.7003C59.5424 21.4783 59.4134 18.7833 60.1384 16.4032C60.3894 15.5513 60.8334 14.7888 61.3564 14.0751C61.5974 13.6866 62.0424 13.2577 62.4074 12.9981ZM69.6456 14.5583C68.9216 13.9196 67.7696 13.6347 66.7546 13.6372C66.2966 13.6243 65.8346 13.6705 65.3976 13.811C64.4976 14.0225 63.7626 14.6195 63.2016 15.3102C62.3676 16.4099 62.1066 17.8276 62.0516 19.1789C62.0326 20.7359 62.3396 22.4361 63.4156 23.6112C63.9926 24.2921 64.7566 24.8041 65.6566 24.9577C67.0156 25.1933 68.5716 25.0405 69.6456 24.1264C70.3756 23.5437 70.9326 22.7936 71.2226 21.9057C71.8686 20.0697 71.7946 17.9676 70.9686 16.1999C70.6556 15.5158 70.2236 15.0239 69.6456 14.5583Z" fill="black"/>
<path d="M49.7367 5.98663C48.0537 6.05363 46.3407 6.49243 44.9927 7.52803C44.7157 7.71083 44.4097 8.04073 44.2187 8.32743C43.3957 9.36113 42.9747 10.7045 43.1057 12.0243C43.1537 12.9845 43.5097 13.918 44.1607 14.6336C44.3517 14.9194 44.7197 15.2439 45.0197 15.4313C46.7607 16.7772 49.0247 17.0272 51.0797 17.6392C52.3627 18.0278 53.8477 18.2915 54.6877 19.427C55.3987 20.2908 55.3787 21.5892 54.9907 22.6038C54.6577 23.4349 53.9317 24.029 53.1567 24.446C51.5357 25.1438 49.6567 25.0985 47.9787 24.6311C46.7147 24.2464 45.5937 23.4993 44.7727 22.4634C44.5627 22.123 44.3767 21.9038 44.0477 22.297C43.5507 22.6437 43.0527 22.9903 42.5547 23.3369C42.9547 23.9615 43.4267 24.5611 43.9907 24.9911C44.9567 25.7254 46.0027 26.3749 47.1907 26.6795C49.4117 27.3379 51.8777 27.2693 54.0267 26.3821C54.8937 25.9317 55.7217 25.4766 56.3347 24.721C57.1287 23.7884 57.6377 22.4802 57.6627 21.2055C57.7277 19.9817 57.3307 18.7404 56.5207 17.8104C56.3667 17.5685 56.0877 17.3212 55.8207 17.1666C55.4167 16.8094 54.9587 16.5853 54.4627 16.3185C52.2527 15.2186 49.7317 14.9812 47.4727 14.0199C46.7817 13.678 46.0887 13.2044 45.7297 12.5094C45.1917 11.3227 45.6107 9.82073 46.6637 9.06803C47.5837 8.33493 48.8467 8.11923 50.0127 8.11083C52.0367 8.09023 54.0897 8.96833 55.3117 10.5921C55.9167 10.1409 56.5207 9.68983 57.1257 9.23863C56.5957 8.50403 55.9327 7.93493 55.2067 7.44833C53.6037 6.40013 51.6527 5.88843 49.7367 5.98663Z" fill="black"/>
<path d="M77.5918 21.5698C77.5938 22.8615 77.8578 24.2036 78.6498 25.2542C78.9968 25.8144 79.6798 26.2597 80.2868 26.5895C81.8748 27.3199 83.7798 27.2083 85.3508 26.4922C86.0668 26.1069 86.7548 25.6275 87.2118 25.0098C87.4208 24.8176 87.6568 24.272 87.7788 24.2429C87.7788 25.075 87.7788 25.9071 87.7788 26.7392C88.5158 26.7392 89.2528 26.7392 89.9898 26.7392C89.9898 21.8205 89.9898 16.9017 89.9898 11.983C89.2528 11.983 88.5158 11.983 87.7788 11.983C87.7628 14.9967 87.8138 18.0121 87.7408 21.0247C87.5618 22.2377 87.0078 23.4091 86.0018 24.1451C84.7828 25.0691 83.0158 25.2936 81.5798 24.7278C80.5728 24.2781 79.9998 23.18 79.9278 22.1013C79.7548 20.2144 79.8778 18.3152 79.8408 16.423C79.8408 14.943 79.8408 13.463 79.8408 11.983C79.0908 11.983 78.3408 11.983 77.5918 11.983C77.5918 15.1786 77.5918 18.3742 77.5918 21.5698Z" fill="black"/>
<path fill-rule="evenodd" clip-rule="evenodd" d="M93.6796 13.4309C95.2496 12.3278 97.1496 11.7071 99.0696 11.6451C100.5 11.5647 102.03 11.8205 103.23 12.6073C104.16 13.1185 104.72 14.2041 104.89 15.2542C104.94 17.6897 104.935 20.1263 104.929 22.5629C104.926 23.9552 104.922 25.3475 104.93 26.7396H102.79V25.6118C102.764 25.5303 102.777 25.4181 102.79 25.3047C102.814 25.1082 102.837 24.9085 102.66 24.8599C102.525 24.9604 102.437 25.0938 102.348 25.2298C102.246 25.3861 102.141 25.5459 101.96 25.6634C101.31 26.2501 100.47 26.7121 99.5696 26.9172C98.0296 27.2128 96.3296 27.149 94.9496 26.3637C94.8507 26.2923 94.7476 26.2246 94.6453 26.1574C94.3648 25.9731 94.0908 25.793 93.9296 25.5554C93.5096 25.0254 93.1696 24.4421 93.0296 23.7735C92.7996 22.5888 92.8496 21.2319 93.6496 20.2544C94.0196 19.686 94.6196 19.2444 95.2596 18.9441C96.2967 18.4773 97.4285 18.3175 98.5558 18.1583C98.9828 18.098 99.4092 18.0378 99.8296 17.9611C100.63 17.8081 101.58 17.5898 102.13 17.0588C102.8 16.5519 102.88 15.5377 102.5 14.8311C101.82 13.7897 100.43 13.5652 99.2496 13.5812C97.6296 13.646 95.9496 14.0528 94.6496 15.0475L94.6495 15.0475C94.3295 14.5086 94.0095 13.9697 93.6796 13.4309ZM102.721 19.787C102.712 19.3875 102.704 18.9898 102.719 18.6001V18.4686C102.479 18.7095 102.189 18.8756 101.869 19.0513C101.018 19.3804 100.122 19.5366 99.2261 19.6928C98.4269 19.8322 97.6273 19.9716 96.8589 20.2338C96.1689 20.4597 95.5189 20.9059 95.3089 21.6271C95.0389 22.4585 95.1489 23.487 95.7089 24.1643C96.4889 25.0981 97.8389 25.2423 98.9889 25.1467C100.289 25.0463 101.559 24.3679 102.189 23.2192C102.772 22.1624 102.746 20.9665 102.721 19.787Z" fill="black"/>
<path d="M115.12 11.7016C113.94 11.7931 112.79 12.3288 111.97 13.0966C111.61 13.4897 111.28 13.9823 110.97 14.4648C110.97 13.6377 110.97 12.8106 110.97 11.9835C110.23 11.9835 109.49 11.9835 108.76 11.9835C108.76 16.9023 108.76 21.821 108.76 26.7397C109.49 26.7397 110.23 26.7397 110.97 26.7397C110.99 23.863 110.92 20.983 111.01 18.1084C111.18 16.7164 111.77 15.2994 112.96 14.4837C114.02 13.6887 115.54 13.6278 116.77 14.1077C117.03 13.9744 116.93 13.5232 117.07 13.2681C117.16 12.9025 117.26 12.537 117.35 12.1715C116.69 11.7872 115.89 11.6563 115.12 11.7016Z" fill="black"/>
<path fill-rule="evenodd" clip-rule="evenodd" d="M121.18 12.8295C122.25 12.1254 123.5 11.6673 124.79 11.6453C126.31 11.5524 127.93 11.9264 129.18 12.8107C129.201 12.8254 129.221 12.8401 129.241 12.8549C129.692 13.1791 130.154 13.5108 130.45 13.9612C131.72 15.5517 132.18 17.6732 131.93 19.6719H121.58C121.451 19.7082 121.295 19.6898 121.139 19.6715C120.884 19.6415 120.63 19.6117 120.5 19.8223C120.53 21.1623 120.86 22.6199 121.85 23.5719C123.04 24.9157 125.02 25.2777 126.74 24.9479C127.97 24.7329 129.09 24.054 129.86 23.0743C130.35 23.5254 130.85 23.9766 131.35 24.4277C130.99 24.8711 130.61 25.2336 130.16 25.5387C128.72 26.7368 126.78 27.1708 124.93 27.0684C123.55 27.0262 122.18 26.5902 121.05 25.7812C120.78 25.5919 120.47 25.3565 120.19 25.0721C119.51 24.2912 118.87 23.3171 118.57 22.2673C117.88 19.9767 118.01 17.4004 119.1 15.2544C119.51 14.5683 119.92 13.9125 120.48 13.3796C120.647 13.235 120.829 13.0967 120.997 12.9695C121.061 12.9211 121.122 12.8744 121.18 12.8295ZM129.17 15.7422C128.49 14.4362 127.06 13.613 125.58 13.5251C124.52 13.4507 123.41 13.646 122.51 14.229C122.422 14.3185 122.308 14.4091 122.193 14.5007C122.006 14.6494 121.816 14.8006 121.73 14.9537C120.92 15.736 120.66 16.8991 120.52 17.9801H129.7C129.69 17.2093 129.5 16.4382 129.17 15.7422Z" fill="black"/>
<path fill-rule="evenodd" clip-rule="evenodd" d="M26.812 0.720337H5.363C2.414 0.720337 0 3.12054 0 6.05444V27.388C0 30.3205 2.414 32.7203 5.363 32.7203H26.812C29.761 32.7203 32.175 30.3205 32.175 27.388V6.05444C32.175 3.12054 29.761 0.720337 26.812 0.720337ZM26.3246 25.2078C26.3246 26.1399 25.5576 26.901 24.6196 26.901H7.55561C6.61761 26.901 5.84961 26.1399 5.84961 25.2078V8.2358C5.84961 7.30319 6.61761 6.53979 7.55561 6.53979H24.6196C25.5576 6.53979 26.3246 7.30319 26.3246 8.2358V25.2078ZM19.5011 21.0844C20.0361 21.0844 20.4751 20.6493 20.4751 20.1142V13.327C20.4751 12.7938 20.0361 12.3578 19.5011 12.3578H12.6771C12.1401 12.3578 11.7031 12.7938 11.7031 13.327V20.1142C11.7031 20.6493 12.1401 21.0844 12.6771 21.0844H19.5011Z" fill="black"/>
</svg>
