<svg width="42" height="42" viewBox="0 0 42 42" fill="none" xmlns="http://www.w3.org/2000/svg">
<path fill-rule="evenodd" clip-rule="evenodd" d="M21 41C32.0457 41 41 32.0457 41 21C41 9.95431 32.0457 1 21 1C9.95431 1 1 9.95431 1 21C1 32.0457 9.95431 41 21 41Z" fill="white" fill-opacity="0.1" stroke="white" stroke-opacity="0.3"/>
<path d="M31 21C31 22.02 30.85 23.01 30.56 23.94C29.77 22.21 28.03 21 26 21C23.24 21 21 23.24 21 26C21 28.03 22.21 29.77 23.94 30.56C23.01 30.85 22.02 31 21 31C15.48 31 11 26.52 11 21C11 15.48 15.48 11 21 11C26.52 11 31 15.48 31 21Z" fill="#00CFFD" stroke="black" stroke-width="1.2" stroke-miterlimit="10" stroke-linecap="round" stroke-linejoin="round"/>
<path d="M23.93 30.55C22.2 29.76 21 28.02 21 26C21 24.9 21.35 23.89 21.96 23.06C21.64 23.02 21.32 23 21 23C17.72 23 14.91 24.97 13.67 27.79C15.5 29.76 18.1 31 21 31C22.02 31 23 30.85 23.93 30.55Z" fill="white" stroke="black" stroke-width="1.2" stroke-miterlimit="10" stroke-linecap="round"/>
<path d="M22.12 22.84H22.13C22.68 22.16 23.42 21.62 24.26 21.31C24.73 20.65 25 19.86 25 19C25 16.79 23.21 15 21 15C18.79 15 17 16.79 17 19C17 21.21 18.79 23 21 23C21.39 23 21.77 22.94 22.13 22.84" fill="white"/>
<path d="M22.12 22.84H22.13C22.68 22.16 23.42 21.62 24.26 21.31C24.73 20.65 25 19.86 25 19C25 16.79 23.21 15 21 15C18.79 15 17 16.79 17 19C17 21.21 18.79 23 21 23C21.39 23 21.77 22.94 22.13 22.84" stroke="black" stroke-width="1.2" stroke-miterlimit="10" stroke-linecap="round" stroke-linejoin="round"/>
<path d="M26 31C28.7614 31 31 28.7614 31 26C31 23.2386 28.7614 21 26 21C23.2386 21 21 23.2386 21 26C21 28.7614 23.2386 31 26 31Z" fill="black" stroke="black" stroke-width="1.2" stroke-miterlimit="10" stroke-linecap="round" stroke-linejoin="round"/>
<path d="M23.6 25.35L25.4 27.15L28.4 24.15" stroke="#00CFFD" stroke-width="1.2" stroke-miterlimit="10"/>
</svg>
